<?xml version="1.0" encoding="utf-8"?>
<!-- Generator: Adobe Illustrator 25.3.1, SVG Export Plug-In . SVG Version: 6.00 Build 0)  -->
<svg version="1.1" id="Capa_1" xmlns="http://www.w3.org/2000/svg" xmlns:xlink="http://www.w3.org/1999/xlink" x="0px" y="0px"
	 viewBox="0 0 250 250" style="enable-background:new 0 0 250 250;" xml:space="preserve">
<style type="text/css">
	.st0{fill:#F70606;}
</style>
<path d="M95.33,107.75c-1.67,0-2.17-1-1.5-3c0-0.33,0.58-2,1.75-5c1.16-3,3.41-6.33,6.75-10c2.66-3.66,6.83-7.08,12.5-10.25
	c5.66-3.16,12.83-4.75,21.5-4.75c1.66,0,2.5,0.83,2.5,2.5c0,2-0.84,3-2.5,3c-12.67,0-22.67,4.17-30,12.5
	c-2.67,3.34-4.59,6.34-5.75,9c-1.17,2.67-1.75,4.17-1.75,4.5c-0.67,1.34-1.5,2-2.5,2L95.33,107.75z M130.83,169.25
	c-8.67,0-16-2.92-22-8.75c-6-5.83-9-13.08-9-21.75c0-8.66,3-16,9-22c6-6,13.33-9,22-9c8.66,0,15.91,3,21.75,9
	c5.83,6,8.75,13.33,8.75,22c0,8.67-2.92,15.92-8.75,21.75C146.74,166.34,139.49,169.25,130.83,169.25z M130.83,112.75
	c-7,0-13,2.59-18,7.75c-5,5.17-7.5,11.25-7.5,18.25c0,6.67,2.5,12.59,7.5,17.75c5,5.17,11,7.75,18,7.75c7,0,12.91-2.58,17.75-7.75
	c4.83-5.16,7.25-11.08,7.25-17.75c0-7-2.42-13.08-7.25-18.25C143.74,115.34,137.83,112.75,130.83,112.75z M130.83,151.75
	c-3,0-5.92-1.08-8.75-3.25c-2.84-2.16-4.25-5.42-4.25-9.75c0-4.33,1.41-7.58,4.25-9.75c2.83-2.16,5.75-3.25,8.75-3.25
	c3,0,5.91,1.09,8.75,3.25c2.83,2.17,4.25,5.42,4.25,9.75c0,4.34-1.42,7.59-4.25,9.75C136.74,150.67,133.83,151.75,130.83,151.75z
	 M130.83,130.25c-5.34,0-8,2.84-8,8.5c0,5.67,2.66,8.5,8,8.5c5.33,0,8-2.83,8-8.5C138.83,133.08,136.16,130.25,130.83,130.25z
	 M130.83,142.75c-2.34,0-3.5-1.33-3.5-4c0-2.66,1.16-4,3.5-4c2.33,0,3.5,1.34,3.5,4C134.33,141.42,133.16,142.75,130.83,142.75z"/>
</svg>
