<?xml version="1.0" encoding="utf-8"?>
<!-- Generator: Adobe Illustrator 25.3.1, SVG Export Plug-In . SVG Version: 6.00 Build 0)  -->
<svg version="1.1" id="Capa_1" xmlns="http://www.w3.org/2000/svg" xmlns:xlink="http://www.w3.org/1999/xlink" x="0px" y="0px"
	 viewBox="0 0 250 250" style="enable-background:new 0 0 250 250;" xml:space="preserve">
<style type="text/css">
	.st0{fill:#F70606;}
</style>
<path d="M91.45,108.75c0-0.33,0.58-2.08,1.75-5.25c1.17-3.16,3.41-6.58,6.75-10.25c3-3.33,7.25-6.58,12.75-9.75
	c5.5-3.16,12.58-4.75,21.25-4.75c2,0,3,0.84,3,2.5c0,2-1,3-3,3c-7.34,0-13.42,1.34-18.25,4c-4.84,2.67-8.59,5.59-11.25,8.75
	c-2.67,3.17-5.17,7.59-7.5,13.25c-0.67,1.34-1.67,2-3,2l-0.5-0.5c-0.67,0-1.25-0.33-1.75-1C91.2,110.09,91.11,109.42,91.45,108.75z
	 M103.45,134.25c0-8.66,2.91-15.91,8.75-21.75c5.83-5.83,13.08-8.75,21.75-8.75c8.66,0,16,2.92,22,8.75c6,5.84,9,13.09,9,21.75
	c0,8.67-3,16-9,22c-6,6-13.34,9-22,9c-8.67,0-15.92-3-21.75-9C106.36,150.25,103.45,142.92,103.45,134.25z M108.95,134.25
	c0,7,2.41,13.09,7.25,18.25c4.83,5.17,10.75,7.75,17.75,7.75c7,0,13-2.58,18-7.75c5-5.16,7.5-11.25,7.5-18.25c0-7-2.5-13-7.5-18
	s-11-7.5-18-7.5c-7,0-12.92,2.5-17.75,7.5C111.36,121.25,108.95,127.25,108.95,134.25z M125.95,139.25l6-5.5l-5-4.5c-1-1-1-2,0-3
	c1-1,2-1,3,0l4.5,5l5-5c1-1,2-1,3,0c1,1,1,2,0,3l-5.5,4.5l6.5,5.5c1,1,1,2,0,3c-1,1-2,1-3,0l-6-6l-5.5,6c-1,1-2,1-3,0
	C124.95,141.25,124.95,140.25,125.95,139.25z"/>
</svg>
