<?xml version="1.0" encoding="utf-8"?>
<!-- Generator: Adobe Illustrator 25.3.1, SVG Export Plug-In . SVG Version: 6.00 Build 0)  -->
<svg version="1.1" id="Capa_1" xmlns="http://www.w3.org/2000/svg" xmlns:xlink="http://www.w3.org/1999/xlink" x="0px" y="0px"
	 viewBox="0 0 250 250" style="enable-background:new 0 0 250 250;" xml:space="preserve">
<style type="text/css">
	.st0{fill:#F70606;}
</style>
<g>
	<path d="M86.2,110.75c0-0.33,0.58-2.08,1.75-5.25c1.16-3.16,3.41-6.58,6.75-10.25c3-3.33,7.25-6.58,12.75-9.75
		c5.5-3.16,12.58-4.75,21.25-4.75c2,0,3,0.84,3,2.5c0,2-1,3-3,3c-7.34,0-13.42,1.34-18.25,4c-4.84,2.67-8.59,5.59-11.25,8.75
		c-2.67,3.17-5.17,7.59-7.5,13.25c-0.67,1.34-1.67,2-3,2l-0.5-0.5c-0.67,0-1.25-0.33-1.75-1C85.95,112.08,85.86,111.42,86.2,110.75z
		 M97.7,136.75c0-8.66,3-15.91,9-21.75c6-5.83,13.33-8.75,22-8.75c8.67,0,15.91,2.92,21.75,8.75c5.83,5.84,8.75,13.09,8.75,21.75
		c0,8.67-2.92,16-8.75,22c-5.84,6-13.09,9-21.75,9c-8.67,0-16-3-22-9C100.7,152.75,97.7,145.42,97.7,136.75z M150.7,135.75
		c0,4.34-1.42,7.59-4.25,9.75c-2.84,2.17-5.75,3.25-8.75,3.25c-2.67,0-5.42-1.08-8.25-3.25c-2.84-2.16-4.25-5.41-4.25-9.75h-22
		c0,7.34,2.33,13.67,7,19c4.66,5.34,10.83,8,18.5,8c7.66,0,13.75-2.66,18.25-8c4.5-5.33,6.75-11.66,6.75-19H150.7z M153.2,131.25
		c-1.34-5.66-4.25-10.41-8.75-14.25c-4.5-3.83-9.75-5.75-15.75-5.75c-6,0-11.33,1.92-16,5.75c-4.67,3.84-7.67,8.59-9,14.25H153.2z
		 M142.7,135.75c0,2.67-1.17,4-3.5,4c-2.34,0-3.5-1.33-3.5-4h-5.5c0,2.67,0.75,4.75,2.25,6.25c1.5,1.5,3.25,2.25,5.25,2.25
		c5.33,0,8-2.83,8-8.5H142.7z"/>
</g>
</svg>
