<?xml version="1.0" encoding="utf-8"?>
<!-- Generator: Adobe Illustrator 25.3.1, SVG Export Plug-In . SVG Version: 6.00 Build 0)  -->
<svg version="1.1" id="Capa_1" xmlns="http://www.w3.org/2000/svg" xmlns:xlink="http://www.w3.org/1999/xlink" x="0px" y="0px"
	 viewBox="0 0 250 250" style="enable-background:new 0 0 250 250;" xml:space="preserve">
<style type="text/css">
	.st0{fill:#F70606;}
</style>
<path d="M93.28,112.25l-0.5-0.5c-0.67,0-1.25-0.33-1.75-1c-0.5-0.66-0.59-1.33-0.25-2c0-0.33,0.58-2.08,1.75-5.25
	c1.17-3.16,3.41-6.58,6.75-10.25c3-3.33,7.25-6.58,12.75-9.75c5.5-3.16,12.58-4.75,21.25-4.75c2,0,3,0.84,3,2.5c0,2-1,3-3,3
	c-7.34,0-13.42,1.34-18.25,4c-4.84,2.67-8.59,5.59-11.25,8.75c-2.67,3.17-5.17,7.59-7.5,13.25
	C95.61,111.59,94.61,112.25,93.28,112.25z M133.28,165.25c-8.33,0-15.5-3-21.5-9c-6-6-9-13.33-9-22c0-8.66,3-15.91,9-21.75
	c6-5.83,13.16-8.75,21.5-8.75c8.66,0,16,2.92,22,8.75c6,5.84,9,13.09,9,21.75c0,8.67-3,16-9,22
	C149.28,162.25,141.95,165.25,133.28,165.25z M133.28,108.75c-7,0-12.92,2.5-17.75,7.5c-4.84,5-7.25,11-7.25,18
	c0,7,2.41,13.09,7.25,18.25c4.83,5.17,10.75,7.75,17.75,7.75c7,0,13-2.58,18-7.75c5-5.16,7.5-11.25,7.5-18.25c0-7-2.5-13-7.5-18
	S140.28,108.75,133.28,108.75z M122.28,134.75c-1-3.67,0.16-6,3.5-7c0.33,0,0.58-0.08,0.75-0.25c0.16-0.16,0.41-0.25,0.75-0.25
	c2.33,0,4.5,1.33,6.5,4c-1.33-3.66-0.34-6,3-7c0.33,0,0.58-0.08,0.75-0.25c0.16-0.16,0.42-0.25,0.75-0.25c2.66,0,4.66,1.5,6,4.5
	c0.66,1.67,0.66,3.5,0,5.5c-0.67,2-1.5,3.84-2.5,5.5c-1,2-2.34,4.17-4,6.5c-2.67-1-5-2-7-3c-1.67-1-3.33-2.16-5-3.5
	C124.11,137.92,122.95,136.42,122.28,134.75z"/>
</svg>
