<?xml version="1.0" encoding="utf-8"?>
<!-- Generator: Adobe Illustrator 25.3.1, SVG Export Plug-In . SVG Version: 6.00 Build 0)  -->
<svg version="1.1" id="Capa_1" xmlns="http://www.w3.org/2000/svg" xmlns:xlink="http://www.w3.org/1999/xlink" x="0px" y="0px"
	 viewBox="0 0 250 250" style="enable-background:new 0 0 250 250;" xml:space="preserve">
<style type="text/css">
	.st0{fill:#F70606;}
</style>
<path d="M110.81,99.5c-0.67-1-1.42-1.91-2.25-2.75c-0.84-0.83-1.59-1.75-2.25-2.75c-1-1-0.83-2.16,0.5-3.5c0.33-0.33,1-0.5,2-0.5
	c1,0,1.67,0.34,2,1c4.66,6,10.25,11.09,16.75,15.25c6.5,4.17,12.75,7.59,18.75,10.25c6,2.67,13.5,5.17,22.5,7.5
	c2,0.67,2.66,1.84,2,3.5c-0.67,1.34-1.5,2-2.5,2h-1c-0.67,0-2.84-0.66-6.5-2c-0.67,7.67-3.84,14-9.5,19c-5.67,5-12.5,7.5-20.5,7.5
	c-8.67,0-16-2.92-22-8.75c-6-5.83-9-13.08-9-21.75c0-4.66,1-9.08,3-13.25C104.81,106.09,107.47,102.5,110.81,99.5z M105.31,123.5
	c0,6.67,2.5,12.59,7.5,17.75c5,5.17,11,7.75,18,7.75c6.67,0,12.33-2.16,17-6.5c4.66-4.33,7.33-9.83,8-16.5
	c-1.67-0.66-3.59-1.41-5.75-2.25c-2.17-0.83-4.42-1.75-6.75-2.75c0.33,0.67,0.5,1.67,0.5,3c0,4-1.42,7.08-4.25,9.25
	c-2.84,2.17-5.75,3.25-8.75,3.25c-3,0-5.92-1.08-8.75-3.25c-2.84-2.16-4.25-5.42-4.25-9.75c0-3.33,0.83-6,2.5-8
	c1.66-2,3.5-3.33,5.5-4c-1.67-1.33-3.42-2.58-5.25-3.75c-1.84-1.17-3.59-2.58-5.25-4.25C108.64,108.5,105.31,115.17,105.31,123.5z
	 M133.81,116.5c-1.33-0.66-2.67-1-4-1c-1.67,0-3.25,0.67-4.75,2c-1.5,1.34-2.25,3.34-2.25,6c0,5.67,2.66,8.5,8,8.5
	c5.33,0,8-2.66,8-8c0-3-1.33-5.33-4-7C134.47,116.67,134.14,116.5,133.81,116.5z M127.31,123.5c0-2.66,1.16-4,3.5-4
	c2.33,0,3.5,1.34,3.5,4c0,2.67-1.17,4-3.5,4C128.47,127.5,127.31,126.17,127.31,123.5z"/>
</svg>
