<?xml version="1.0" encoding="utf-8"?>
<!-- Generator: Adobe Illustrator 25.3.1, SVG Export Plug-In . SVG Version: 6.00 Build 0)  -->
<svg version="1.1" id="Capa_1" xmlns="http://www.w3.org/2000/svg" xmlns:xlink="http://www.w3.org/1999/xlink" x="0px" y="0px"
	 viewBox="0 0 250 250" style="enable-background:new 0 0 250 250;" xml:space="preserve">
<style type="text/css">
	.st0{fill:#F70606;}
</style>
<path d="M96.08,104c-0.34,1-1.17,1.5-2.5,1.5h-1c-1.67-0.66-2.17-1.66-1.5-3c0.33-0.66,1-2.5,2-5.5c1-3,3.16-6.33,6.5-10
	c2.66-3.33,6.83-6.58,12.5-9.75c5.66-3.16,12.83-4.75,21.5-4.75c1.66,0,2.5,0.84,2.5,2.5c0,2-0.84,3-2.5,3
	c-12.67,0-22.67,4.17-30,12.5c-2.67,3.34-4.5,6.25-5.5,8.75C97.08,101.75,96.41,103.34,96.08,104z M140.58,171.5
	c-3.34,0-5.92-1-7.75-3c-1.84-2-2.75-4.33-2.75-7c0-1.33,0.16-2.16,0.5-2.5c0.33-0.33,0.5-0.66,0.5-1c-8,0-14.75-2.83-20.25-8.5
	c-5.5-5.66-8.25-12.83-8.25-21.5c0-8.66,3-15.83,9-21.5c6-5.66,13.33-8.5,22-8.5c8.66,0,15.91,2.84,21.75,8.5
	c5.83,5.67,8.75,12.84,8.75,21.5c0,9.34-3.5,16.5-10.5,21.5c0.66,0.34,1.33,0.67,2,1c0.33,0.67,0.66,1.25,1,1.75
	c0.33,0.5,0.5,1.42,0.5,2.75c0,1.67-0.59,3.09-1.75,4.25c-1.17,1.17-2.59,1.75-4.25,1.75c-0.34,0-0.67-0.08-1-0.25
	c-0.34-0.16-0.67-0.25-1-0.25c1.33,3.34,1.08,6-0.75,8C146.49,170.5,143.91,171.5,140.58,171.5z M145.08,157
	c0.33-0.33,0.83-0.5,1.5-0.5c0.66,0,1.25,0.09,1.75,0.25c0.5,0.17,1.08,0.09,1.75-0.25c1.66-0.66,2.16-1.67,1.5-3
	c-0.67-1.33-1.34-2-2-2c-1.67,0-2.5-0.58-2.5-1.75c0-1.17,0.5-2.08,1.5-2.75c3.66-1.66,6.25-4.25,7.75-7.75
	c1.5-3.5,2.25-7.25,2.25-11.25c0-7-2.42-12.91-7.25-17.75c-4.84-4.83-10.75-7.25-17.75-7.25c-7,0-13,2.42-18,7.25
	c-5,4.84-7.5,10.75-7.5,17.75c0,7,2.5,13,7.5,18s11,7.5,18,7.5c1.33,0,2.08,0.59,2.25,1.75c0.16,1.17,0.08,2.08-0.25,2.75
	c-1.34,2-1.5,3.92-0.5,5.75c1,1.84,2.83,2.75,5.5,2.75c3.66,0,5.16-1.67,4.5-5c-0.34-1-0.59-1.83-0.75-2.5
	C144.16,158.34,144.41,157.67,145.08,157z M133.58,141.5c-3,0-5.92-1.08-8.75-3.25c-2.84-2.16-4.25-5.41-4.25-9.75
	c0-4.33,1.41-7.58,4.25-9.75c2.83-2.16,5.75-3.25,8.75-3.25c3,0,5.91,1.09,8.75,3.25c2.83,2.17,4.25,5.42,4.25,9.75
	c0,4.34-1.42,7.58-4.25,9.75C139.49,140.42,136.58,141.5,133.58,141.5z M133.58,120c-5.34,0-8,2.84-8,8.5c0,5.67,2.66,8.5,8,8.5
	c5.33,0,8-2.83,8-8.5C141.58,122.84,138.91,120,133.58,120z M133.58,132.5c-2.34,0-3.5-1.33-3.5-4c0-2.66,1.16-4,3.5-4
	c2.33,0,3.5,1.34,3.5,4C137.08,131.17,135.91,132.5,133.58,132.5z"/>
</svg>
