<?xml version="1.0" encoding="utf-8"?>
<!-- Generator: Adobe Illustrator 25.3.1, SVG Export Plug-In . SVG Version: 6.00 Build 0)  -->
<svg version="1.1" id="Capa_1" xmlns="http://www.w3.org/2000/svg" xmlns:xlink="http://www.w3.org/1999/xlink" x="0px" y="0px"
	 viewBox="0 0 250 250" style="enable-background:new 0 0 250 250;" xml:space="preserve">
<style type="text/css">
	.st0{fill:#F70606;}
</style>
<path d="M88.95,113.25l-0.5-0.5c-0.67,0-1.25-0.33-1.75-1c-0.5-0.66-0.59-1.33-0.25-2c0-0.33,0.58-2.08,1.75-5.25
	c1.17-3.16,3.41-6.58,6.75-10.25c3-3.33,7.25-6.58,12.75-9.75c5.5-3.16,12.58-4.75,21.25-4.75c2,0,3,0.84,3,2.5c0,2-1,3-3,3
	c-7.34,0-13.42,1.34-18.25,4c-4.83,2.67-8.58,5.59-11.25,8.75c-2.67,3.17-5.17,7.59-7.5,13.25
	C91.28,112.59,90.28,113.25,88.95,113.25z M128.95,166.25c-8.67,0-15.92-3-21.75-9c-5.84-6-8.75-13.33-8.75-22
	c0-8.66,2.91-15.91,8.75-21.75c5.83-5.83,13.08-8.75,21.75-8.75c8.66,0,16,2.92,22,8.75c6,5.84,9,13.09,9,21.75c0,8.67-3,16-9,22
	C144.95,163.25,137.61,166.25,128.95,166.25z M128.95,109.75c-7,0-12.92,2.5-17.75,7.5c-4.84,5-7.25,11-7.25,18
	c0,7,2.41,13.09,7.25,18.25c4.83,5.17,10.75,7.75,17.75,7.75c7,0,13-2.58,18-7.75c5-5.16,7.5-11.25,7.5-18.25c0-7-2.5-13-7.5-18
	S135.95,109.75,128.95,109.75z M129.95,154.25c-1,0-1.5-0.5-1.5-1.5v-2c-2.33-0.33-4.5-1.33-6.5-3c-2-1.66-3-3.66-3-6v-1
	c0-1.33,0.66-2,2-2c1.33,0,2,0.67,2,2v0.5c0,3.33,1.83,5.34,5.5,6v-12c-2-0.33-3.75-1.08-5.25-2.25c-1.5-1.16-2.25-2.75-2.25-4.75
	c0-2.66,0.75-4.58,2.25-5.75c1.5-1.16,3.25-1.91,5.25-2.25v-2.5c0-1,0.5-1.5,1.5-1.5c1,0,1.5,0.5,1.5,1.5v2.5c3,0.67,5,2.17,6,4.5
	c0.66,1,0.33,1.84-1,2.5c-1,0.34-1.84-0.16-2.5-1.5c-0.34-0.66-1.17-1.33-2.5-2v8.5c5.33,1.34,8,4.17,8,8.5c0,5.34-2.67,8.67-8,10v2
	C131.45,153.75,130.95,154.25,129.95,154.25z M128.45,131.75v-8c-2.33,0.67-3.5,2.17-3.5,4.5
	C124.95,129.92,126.12,131.09,128.45,131.75z M131.45,135.75v11c2.66-1,4-3,4-6C135.45,138.42,134.11,136.75,131.45,135.75z"/>
</svg>
