<?xml version="1.0" encoding="utf-8"?>
<!-- Generator: Adobe Illustrator 25.3.1, SVG Export Plug-In . SVG Version: 6.00 Build 0)  -->
<svg version="1.1" id="Capa_1" xmlns="http://www.w3.org/2000/svg" xmlns:xlink="http://www.w3.org/1999/xlink" x="0px" y="0px"
	 viewBox="0 0 250 250" style="enable-background:new 0 0 250 250;" xml:space="preserve">
<style type="text/css">
	.st0{fill:#F70606;}
</style>
<path d="M93.28,112.25l-0.5-0.5c-0.67,0-1.25-0.33-1.75-1c-0.5-0.66-0.59-1.33-0.25-2c0-0.33,0.58-2.08,1.75-5.25
	c1.17-3.16,3.41-6.58,6.75-10.25c3-3.33,7.25-6.58,12.75-9.75c5.5-3.16,12.58-4.75,21.25-4.75c2,0,3,0.84,3,2.5c0,2-1,3-3,3
	c-7.34,0-13.42,1.34-18.25,4c-4.84,2.67-8.59,5.59-11.25,8.75c-2.67,3.17-5.17,7.59-7.5,13.25
	C95.61,111.59,94.61,112.25,93.28,112.25z M133.78,103.75c8.67,0,15.91,3,21.75,9c5.83,6,8.75,13.33,8.75,22
	c0,8.67-2.92,15.92-8.75,21.75c-5.84,5.83-13.09,8.75-21.75,8.75c-8.67,0-16-2.92-22-8.75c-6-5.83-9-13.08-9-21.75c0-8.67,3-16,9-22
	C117.78,106.75,125.11,103.75,133.78,103.75z M133.78,160.25c7,0,12.92-2.5,17.75-7.5c4.83-5,7.25-11,7.25-18
	c0-7-2.42-13.08-7.25-18.25c-4.84-5.16-10.75-7.75-17.75-7.75c-7,0-13,2.59-18,7.75c-5,5.17-7.5,11.25-7.5,18.25c0,7,2.5,13,7.5,18
	S126.78,160.25,133.78,160.25z M133.78,144.75c-3.67,0-6.67-1.08-9-3.25c-2.34-2.16-3.5-4.91-3.5-8.25c0-1.66,0.83-2.5,2.5-2.5
	c2,0,3,0.84,3,2.5c0,4.67,2.33,7,7,7c4.33,0,6.5-2.33,6.5-7c0-1.66,0.83-2.5,2.5-2.5c2,0,3,0.84,3,2.5c0,3.34-1.09,6.09-3.25,8.25
	C140.36,143.67,137.45,144.75,133.78,144.75z"/>
</svg>
