<?xml version="1.0" encoding="utf-8"?>
<!-- Generator: Adobe Illustrator 25.3.1, SVG Export Plug-In . SVG Version: 6.00 Build 0)  -->
<svg version="1.1" id="Capa_1" xmlns="http://www.w3.org/2000/svg" xmlns:xlink="http://www.w3.org/1999/xlink" x="0px" y="0px"
	 viewBox="0 0 250 250" style="enable-background:new 0 0 250 250;" xml:space="preserve">
<style type="text/css">
	.st0{fill:#F70606;}
</style>
<path d="M93.28,112.25l-0.5-0.5c-0.67,0-1.25-0.33-1.75-1c-0.5-0.66-0.59-1.33-0.25-2c0-0.33,0.58-2.08,1.75-5.25
	c1.17-3.16,3.41-6.58,6.75-10.25c3-3.33,7.25-6.58,12.75-9.75c5.5-3.16,12.58-4.75,21.25-4.75c2,0,3,0.84,3,2.5c0,2-1,3-3,3
	c-7.34,0-13.42,1.34-18.25,4c-4.83,2.67-8.58,5.59-11.25,8.75c-2.67,3.17-5.17,7.59-7.5,13.25
	C95.61,111.59,94.61,112.25,93.28,112.25z M133.78,165.25c-8.67,0-16-3-22-9c-6-6-9-13.33-9-22c0-8.66,3-15.91,9-21.75
	c6-5.83,13.33-8.75,22-8.75c8.67,0,15.91,2.92,21.75,8.75c5.83,5.84,8.75,13.09,8.75,21.75c0,8.67-2.92,16-8.75,22
	C149.7,162.25,142.45,165.25,133.78,165.25z M133.78,108.25c-7,0-13,2.59-18,7.75c-5,5.17-7.5,11.25-7.5,18.25
	c0,7,2.5,13.17,7.5,18.5c5,5.34,11,8,18,8c7,0,12.92-2.66,17.75-8c4.83-5.33,7.25-11.5,7.25-18.5c0-7-2.42-13.08-7.25-18.25
	C146.7,110.84,140.78,108.25,133.78,108.25z M133.78,125.25c3.67,0,6.75,1.25,9.25,3.75c2.5,2.5,3.75,5.59,3.75,9.25
	c0,1.67-1,2.5-3,2.5c-1.67,0-2.5-0.83-2.5-2.5c0-2-0.75-3.91-2.25-5.75c-1.5-1.83-3.25-2.75-5.25-2.75c-2.33,0-4.17,0.92-5.5,2.75
	c-1.34,1.84-2,3.75-2,5.75c0,1.67-1,2.5-3,2.5c-1.67,0-2.5-0.83-2.5-2.5c0-3.66,1.25-6.75,3.75-9.25
	C127.03,126.5,130.11,125.25,133.78,125.25z"/>
</svg>
