<?xml version="1.0" encoding="utf-8"?>
<!-- Generator: Adobe Illustrator 25.3.1, SVG Export Plug-In . SVG Version: 6.00 Build 0)  -->
<svg version="1.1" id="Capa_1" xmlns="http://www.w3.org/2000/svg" xmlns:xlink="http://www.w3.org/1999/xlink" x="0px" y="0px"
	 viewBox="0 0 250 250" style="enable-background:new 0 0 250 250;" xml:space="preserve">
<style type="text/css">
	.st0{fill:#F70606;}
</style>
<g>
	<path d="M90.7,121.25c9-2.33,16.5-4.83,22.5-7.5c6-2.66,12.33-6.08,19-10.25c6.66-4.16,12.16-9.25,16.5-15.25c0.33-0.66,1-1,2-1
		c1,0,1.66,0.17,2,0.5c1.33,1.34,1.5,2.5,0.5,3.5c-0.67,1-1.42,1.92-2.25,2.75c-0.84,0.84-1.59,1.75-2.25,2.75
		c3.33,3,6,6.59,8,10.75c2,4.17,3,8.59,3,13.25c0,8.67-3,15.92-9,21.75c-6,5.84-13.34,8.75-22,8.75c-8,0-14.84-2.5-20.5-7.5
		c-5.67-5-8.84-11.33-9.5-19c-3.67,1.34-5.84,2-6.5,2h-1c-1,0-1.84-0.66-2.5-2C88.03,123.08,88.7,121.92,90.7,121.25z M103.7,123.25
		c0.66,6.67,3.33,12.17,8,16.5c4.66,4.34,10.33,6.5,17,6.5c2.33,0,4-0.16,5-0.5c-2.67-0.33-5.34-1.58-8-3.75
		c-2.67-2.16-4-5.25-4-9.25c0-4.33,1.33-7.58,4-9.75c2.66-2.16,5.5-3.25,8.5-3.25c3,0,5.91,1.09,8.75,3.25
		c2.83,2.17,4.25,5.42,4.25,9.75c0,2.34-0.67,4.84-2,7.5c6-5.33,9-11.83,9-19.5c0-8.33-3.34-15-10-20c-6.67,5.67-13.67,10.34-21,14
		C115.86,118.42,109.36,121.25,103.7,123.25z M126.7,132.75c0,2.67,0.75,4.75,2.25,6.25c1.5,1.5,3.25,2.25,5.25,2.25
		c5.33,0,8-2.83,8-8.5c0-5.66-2.67-8.5-8-8.5C129.2,124.25,126.7,127.08,126.7,132.75z M131.7,134.25c0-2.66,1.16-4,3.5-4
		c2.33,0,3.5,1.34,3.5,4c0,2.67-1.17,4-3.5,4C132.86,138.25,131.7,136.92,131.7,134.25z"/>
</g>
</svg>
