<?xml version="1.0" encoding="utf-8"?>
<!-- Generator: Adobe Illustrator 25.3.1, SVG Export Plug-In . SVG Version: 6.00 Build 0)  -->
<svg version="1.1" id="Capa_1" xmlns="http://www.w3.org/2000/svg" xmlns:xlink="http://www.w3.org/1999/xlink" x="0px" y="0px"
	 viewBox="0 0 250 250" style="enable-background:new 0 0 250 250;" xml:space="preserve">
<style type="text/css">
	.st0{fill:#F70606;}
</style>
<g>
	<path d="M88.7,109.25c0-1.66,0.83-2.5,2.5-2.5c8.33,0,16-2.25,23-6.75c7-4.5,11.83-10.91,14.5-19.25c0.66-2,1.83-2.66,3.5-2
		c1.33,0.34,2,1.5,2,3.5c-0.34,0-1.09,1.59-2.25,4.75c-1.17,3.17-3.25,6.59-6.25,10.25c-3,3.33-7.25,6.67-12.75,10
		c-5.5,3.33-12.75,5-21.75,5C89.53,112.25,88.7,111.25,88.7,109.25z M103.2,135.25c0-8.66,2.91-15.91,8.75-21.75
		c5.83-5.83,13.08-8.75,21.75-8.75c8.66,0,16,2.92,22,8.75c6,5.83,9,13.09,9,21.75c0,8.67-3,16-9,22c-6,6-13.34,9-22,9
		c-8.34,0-15.5-3-21.5-9C106.2,151.25,103.2,143.92,103.2,135.25z M108.7,135.25c0,7,2.41,13.09,7.25,18.25
		c4.83,5.17,10.75,7.75,17.75,7.75c7,0,13-2.58,18-7.75c5-5.16,7.5-11.25,7.5-18.25c0-7-2.5-13-7.5-18s-11-7.5-18-7.5
		c-7,0-12.92,2.5-17.75,7.5C111.11,122.25,108.7,128.25,108.7,135.25z M125.7,140.25l6-5.5l-5-4.5c-1-1-1-2,0-3c1-1,2-1,3,0l4.5,5
		l5-5c1-1,2-1,3,0c1,1,1,2,0,3l-5.5,4.5l6.5,5.5c1,1,1,2,0,3c-1,1-2,1-3,0l-6-6l-5.5,6c-1,1-2,1-3,0
		C124.7,142.25,124.7,141.25,125.7,140.25z"/>
</g>
</svg>
