<?xml version="1.0" encoding="utf-8"?>
<!-- Generator: Adobe Illustrator 25.3.1, SVG Export Plug-In . SVG Version: 6.00 Build 0)  -->
<svg version="1.1" id="Capa_1" xmlns="http://www.w3.org/2000/svg" xmlns:xlink="http://www.w3.org/1999/xlink" x="0px" y="0px"
	 viewBox="0 0 250 250" style="enable-background:new 0 0 250 250;" xml:space="preserve">
<style type="text/css">
	.st0{fill:#F70606;}
</style>
<path d="M84.73,122c9-2.33,16.5-4.83,22.5-7.5c6-2.66,12.33-6.08,19-10.25c6.66-4.16,12.16-9.25,16.5-15.25c0.33-0.66,1-1,2-1
	c1,0,1.67,0.17,2,0.5c1.33,1.34,1.5,2.5,0.5,3.5c-0.67,1-1.42,1.92-2.25,2.75c-0.84,0.84-1.59,1.75-2.25,2.75c3.33,3,6,6.59,8,10.75
	c2,4.17,3,8.59,3,13.25c0,8.67-3,15.92-9,21.75c-6,5.83-13.33,8.75-22,8.75c-8,0-14.84-2.5-20.5-7.5c-5.67-5-8.84-11.33-9.5-19
	c-3.67,1.34-5.83,2-6.5,2h-1c-1,0-1.84-0.66-2.5-2C82.05,123.84,82.73,122.67,84.73,122z M127.73,109.5c2,0.67,3.83,2,5.5,4
	c1.66,2,2.5,4.67,2.5,8c0,4.34-1.42,7.59-4.25,9.75c-2.84,2.17-5.75,3.25-8.75,3.25c-3,0-5.92-1.08-8.75-3.25
	c-2.84-2.16-4.25-5.25-4.25-9.25c0-1.33,0.16-2.33,0.5-3c-2.34,1-4.58,1.92-6.75,2.75c-2.17,0.84-4.09,1.59-5.75,2.25
	c0.66,6.67,3.33,12.17,8,16.5c4.66,4.34,10.33,6.5,17,6.5c7,0,13-2.58,18-7.75c5-5.16,7.5-11.08,7.5-17.75c0-8.33-3.34-15-10-20
	c-1.67,1.67-3.42,3.09-5.25,4.25C131.14,106.92,129.39,108.17,127.73,109.5z M114.73,122c0,5.34,2.66,8,8,8c5.33,0,8-2.83,8-8.5
	c0-2.66-0.75-4.66-2.25-6c-1.5-1.33-3.09-2-4.75-2c-1.34,0-2.67,0.34-4,1l-1,0.5C116.05,116.67,114.73,119,114.73,122z
	 M119.23,121.5c0-2.66,1.16-4,3.5-4c2.33,0,3.5,1.34,3.5,4c0,2.67-1.17,4-3.5,4C120.39,125.5,119.23,124.17,119.23,121.5z"/>
</svg>
