<?xml version="1.0" encoding="utf-8"?>
<!-- Generator: Adobe Illustrator 25.3.1, SVG Export Plug-In . SVG Version: 6.00 Build 0)  -->
<svg version="1.1" id="Capa_1" xmlns="http://www.w3.org/2000/svg" xmlns:xlink="http://www.w3.org/1999/xlink" x="0px" y="0px"
	 viewBox="0 0 250 250" style="enable-background:new 0 0 250 250;" xml:space="preserve">
<style type="text/css">
	.st0{fill:#F70606;}
</style>
<path d="M93.58,104.75c0-0.33,0.58-2,1.75-5c1.16-3,3.41-6.33,6.75-10c2.66-3.66,6.83-7.08,12.5-10.25
	c5.66-3.16,12.83-4.75,21.5-4.75c1.66,0,2.5,1,2.5,3c0,1.67-0.84,2.5-2.5,2.5c-7.34,0-13.42,1.34-18.25,4
	c-4.84,2.67-8.75,5.67-11.75,9c-3.34,3.67-5.84,8-7.5,13c0,1.34-0.84,2-2.5,2h-1C93.41,107.59,92.91,106.42,93.58,104.75z
	 M130.58,107.75c8.66,0,16,2.92,22,8.75c6,5.84,9,13.09,9,21.75c0,8.67-3,16-9,22c-6,6-13.34,9-22,9c-8.34,0-15.5-3-21.5-9
	c-6-6-9-13.33-9-22c0-8.67,3-15.91,9-21.75C115.08,110.67,122.24,107.75,130.58,107.75z M105.58,138.25c0,7,2.41,13.09,7.25,18.25
	c4.83,5.17,10.75,7.75,17.75,7.75s13-2.58,18-7.75c5-5.16,7.5-11.25,7.5-18.25c0-9-3.84-16-11.5-21c3.33,2.34,5,5.67,5,10
	c0,4.34-1.42,7.59-4.25,9.75c-2.84,2.17-5.75,3.25-8.75,3.25c-3,0-5.83-1.08-8.5-3.25c-2.67-2.16-4-5.42-4-9.75
	c0-4.33,1.41-7.58,4.25-9.75c2.83-2.16,5.58-3.25,8.25-3.25c0.66,0,2.33,0.34,5,1c-4-1.66-7.67-2.5-11-2.5c-7,0-12.92,2.5-17.75,7.5
	C107.99,125.25,105.58,131.25,105.58,138.25z M136.58,135.75c5.33,0,8-2.83,8-8.5c0-5.66-2.67-8.5-8-8.5c-2,0-3.75,0.75-5.25,2.25
	c-1.5,1.5-2.25,3.59-2.25,6.25C129.08,132.92,131.58,135.75,136.58,135.75z M134.08,125.75c0-2.66,1.16-4,3.5-4
	c2.33,0,3.5,1.34,3.5,4c0,2.67-1.17,4-3.5,4C135.24,129.75,134.08,128.42,134.08,125.75z"/>
</svg>
