<?xml version="1.0" encoding="utf-8"?>
<!-- Generator: Adobe Illustrator 25.3.1, SVG Export Plug-In . SVG Version: 6.00 Build 0)  -->
<svg version="1.1" id="Capa_1" xmlns="http://www.w3.org/2000/svg" xmlns:xlink="http://www.w3.org/1999/xlink" x="0px" y="0px"
	 viewBox="0 0 250 250" style="enable-background:new 0 0 250 250;" xml:space="preserve">
<style type="text/css">
	.st0{fill:#F70606;}
</style>
<path d="M89.24,103.25c0-0.33,0.58-2,1.75-5c1.16-3,3.41-6.33,6.75-10c2.67-3.66,6.83-7.08,12.5-10.25
	c5.66-3.16,12.83-4.75,21.5-4.75c1.66,0,2.5,1,2.5,3c0,1.67-0.84,2.5-2.5,2.5c-7.33,0-13.42,1.34-18.25,4
	c-4.84,2.67-8.75,5.67-11.75,9c-3.34,3.67-5.84,8-7.5,13c0,1.34-0.84,2-2.5,2h-1C89.07,106.09,88.57,104.92,89.24,103.25z
	 M95.74,142.25c0-8.66,2.91-16,8.75-22c5.83-6,13.08-9,21.75-9c8.66,0,16,3,22,9c6,6,9,13.34,9,22c0,8.67-3,15.92-9,21.75
	c-6,5.84-13.34,8.75-22,8.75c-8.67,0-15.92-2.91-21.75-8.75C98.66,158.17,95.74,150.92,95.74,142.25z M126.25,167.75
	c3,0,6-0.5,9-1.5c-1,0.34-2.33,0.5-4,0.5c-2.67,0-5.42-1.08-8.25-3.25c-2.84-2.16-4.25-5.42-4.25-9.75c0-4.33,1.33-7.58,4-9.75
	c2.67-2.16,5.5-3.25,8.5-3.25c3,0,5.91,1.09,8.75,3.25c2.83,2.17,4.25,5.42,4.25,9.75c0,5-2,8.67-6,11c4-2.33,7.25-5.5,9.75-9.5
	c2.5-4,3.75-8.33,3.75-13c0-7-2.5-13.08-7.5-18.25c-5-5.16-11-7.75-18-7.75c-7,0-12.92,2.59-17.75,7.75
	c-4.84,5.17-7.25,11.25-7.25,18.25s2.41,13,7.25,18C113.32,165.25,119.24,167.75,126.25,167.75z M123.75,153.75
	c0,2.67,0.75,4.75,2.25,6.25c1.5,1.5,3.25,2.25,5.25,2.25c5.33,0,8-2.83,8-8.5c0-5.66-2.67-8.5-8-8.5
	C126.25,145.25,123.75,148.09,123.75,153.75z M132.24,151.25c2.33,0,3.5,1.34,3.5,4c0,2.67-1.17,4-3.5,4c-2.34,0-3.5-1.33-3.5-4
	C128.75,152.59,129.91,151.25,132.24,151.25z"/>
</svg>
