<?xml version="1.0" encoding="utf-8"?>
<!-- Generator: Adobe Illustrator 25.3.1, SVG Export Plug-In . SVG Version: 6.00 Build 0)  -->
<svg version="1.1" id="Capa_1" xmlns="http://www.w3.org/2000/svg" xmlns:xlink="http://www.w3.org/1999/xlink" x="0px" y="0px"
	 viewBox="0 0 250 250" style="enable-background:new 0 0 250 250;" xml:space="preserve">
<style type="text/css">
	.st0{fill:#F70606;}
</style>
<path d="M91.03,108.5c0-0.33,0.58-2.08,1.75-5.25c1.17-3.16,3.41-6.58,6.75-10.25c3-3.33,7.25-6.58,12.75-9.75
	c5.5-3.16,12.58-4.75,21.25-4.75c2,0,3,0.84,3,2.5c0,2-1,3-3,3c-7.34,0-13.42,1.34-18.25,4c-4.84,2.67-8.59,5.59-11.25,8.75
	c-2.67,3.17-5.17,7.59-7.5,13.25c-0.67,1.34-1.67,2-3,2l-0.5-0.5c-0.67,0-1.25-0.33-1.75-1C90.78,109.84,90.7,109.17,91.03,108.5z
	 M133.53,104c8.66,0,15.91,2.92,21.75,8.75c5.83,5.84,8.75,13.09,8.75,21.75c0,8.67-2.92,16-8.75,22c-5.83,6-13.09,9-21.75,9
	c-8.67,0-16-3-22-9c-6-6-9-13.33-9-22c0-8.67,3-15.91,9-21.75C117.53,106.92,124.86,104,133.53,104z M146.53,134
	c0,3.67-1.25,6.84-3.75,9.5c-2.5,2.67-5.59,4-9.25,4c-3.67,0-6.75-1.33-9.25-4c-2.5-2.66-3.75-5.83-3.75-9.5h-12.5
	c0,7.34,2.5,13.59,7.5,18.75c5,5.17,11,7.75,18,7.75c7,0,12.92-2.58,17.75-7.75c4.83-5.16,7.25-11.41,7.25-18.75H146.53z
	 M158.03,129.5c-1-5.66-3.75-10.5-8.25-14.5c-4.5-4-9.92-6-16.25-6c-6.34,0-11.75,2-16.25,6c-4.5,4-7.42,8.84-8.75,14.5H158.03z
	 M136.53,134c0,3-1,4.5-3,4.5c-2.34,0-3.5-1.5-3.5-4.5h-4c0,2.34,0.66,4.42,2,6.25c1.33,1.84,3.16,2.75,5.5,2.75
	c2,0,3.75-0.91,5.25-2.75c1.5-1.83,2.25-3.91,2.25-6.25H136.53z"/>
</svg>
