<?xml version="1.0" encoding="utf-8"?>
<!-- Generator: Adobe Illustrator 25.3.1, SVG Export Plug-In . SVG Version: 6.00 Build 0)  -->
<svg version="1.1" id="Capa_1" xmlns="http://www.w3.org/2000/svg" xmlns:xlink="http://www.w3.org/1999/xlink" x="0px" y="0px"
	 viewBox="0 0 250 250" style="enable-background:new 0 0 250 250;" xml:space="preserve">
<style type="text/css">
	.st0{fill:#F70606;}
</style>
<path d="M87.69,100.62c0.66-1.66,1.83-2.16,3.5-1.5c5.66,2.34,11.25,3.75,16.75,4.25c5.5,0.5,11.25,0.75,17.25,0.75
	c8.66-0.66,16.16-1.91,22.5-3.75c6.33-1.83,9.66-2.92,10-3.25c1.66-0.66,2.83,0,3.5,2c0.66,1.67,0.16,2.84-1.5,3.5
	c-0.34,0-1.09,0.17-2.25,0.5c-1.17,0.34-3.09,0.84-5.75,1.5c2,3.33,3,7.34,3,12c0,8.67-2.84,15.92-8.5,21.75
	c-5.67,5.83-12.84,8.75-21.5,8.75c-8.67,0-15.92-2.92-21.75-8.75c-5.83-5.83-8.75-13.08-8.75-21.75c0-3.33,0.5-6.67,1.5-10
	c-1-0.33-2.09-0.58-3.25-0.75c-1.17-0.16-2.25-0.58-3.25-1.25C87.51,103.62,87.01,102.3,87.69,100.62z M101.19,107.62
	c-1,3-1.5,6-1.5,9c0,7,2.41,12.92,7.25,17.75c4.83,4.84,10.75,7.25,17.75,7.25c6.66,0,12.5-2.42,17.5-7.25
	c5-4.83,7.5-10.75,7.5-17.75c0-4-0.84-7.66-2.5-11c-4.34,1.34-8.67,2.17-13,2.5c2.66,2,4,5,4,9c0,4.34-1.42,7.59-4.25,9.75
	c-2.84,2.17-5.75,3.25-8.75,3.25c-3,0-5.92-1.08-8.75-3.25c-2.84-2.16-4.25-5.41-4.25-9.75c0-3.33,1-6,3-8
	C110.51,109.12,105.85,108.62,101.19,107.62z M117.19,117.12c0,5.67,2.66,8.5,8,8.5c5.33,0,8-2.83,8-8.5c0-5.33-2.67-8-8-8
	C119.85,109.12,117.19,111.8,117.19,117.12z M121.69,116.62c0-2.33,1.17-3.5,3.5-3.5c2.33,0,3.5,1.17,3.5,3.5
	c0,2.34-1.17,3.5-3.5,3.5C122.85,120.12,121.69,118.96,121.69,116.62z"/>
</svg>
