<?xml version="1.0" encoding="utf-8"?>
<!-- Generator: Adobe Illustrator 25.3.1, SVG Export Plug-In . SVG Version: 6.00 Build 0)  -->
<svg version="1.1" id="Capa_1" xmlns="http://www.w3.org/2000/svg" xmlns:xlink="http://www.w3.org/1999/xlink" x="0px" y="0px"
	 viewBox="0 0 250 250" style="enable-background:new 0 0 250 250;" xml:space="preserve">
<style type="text/css">
	.st0{fill:#F70606;}
</style>
<path d="M86.7,109.5c0-0.33,0.58-2.08,1.75-5.25c1.17-3.16,3.41-6.58,6.75-10.25c3-3.33,7.25-6.58,12.75-9.75
	c5.5-3.16,12.58-4.75,21.25-4.75c2,0,3,0.84,3,2.5c0,2-1,3-3,3c-7.34,0-13.42,1.34-18.25,4c-4.83,2.67-8.58,5.59-11.25,8.75
	c-2.67,3.17-5.17,7.59-7.5,13.25c-0.67,1.34-1.67,2-3,2l-0.5-0.5c-0.67,0-1.25-0.33-1.75-1C86.45,110.84,86.37,110.17,86.7,109.5z
	 M98.2,135.5c0-8.67,3-15.91,9-21.75c6-5.83,13.33-8.75,22-8.75c8.66,0,15.91,2.92,21.75,8.75c5.83,5.84,8.75,13.09,8.75,21.75
	c0,8.67-2.92,16-8.75,22c-5.83,6-13.09,9-21.75,9c-8.67,0-16-3-22-9C101.2,151.5,98.2,144.17,98.2,135.5z M132.2,134.5
	c0,4-1.17,7.34-3.5,10c-2.33,2.67-5.5,4-9.5,4s-7.09-1.41-9.25-4.25c-2.17-2.83-3.25-6.08-3.25-9.75h-3c0,7.34,2.33,13.67,7,19
	c4.66,5.34,10.83,8,18.5,8c7.66,0,13.75-2.66,18.25-8c4.5-5.33,6.75-11.67,6.75-19H132.2z M153.7,130
	c-1.33-5.66-4.25-10.41-8.75-14.25c-4.5-3.83-9.75-5.75-15.75-5.75c-6,0-11.34,1.92-16,5.75c-4.67,3.84-7.67,8.59-9,14.25H153.7z
	 M121.7,134.5c0,3.34-1.17,5-3.5,5c-2.34,0-3.5-1.66-3.5-5h-3c0,2.67,0.58,4.92,1.75,6.75c1.17,1.84,3.08,2.75,5.75,2.75
	c5.33,0,8-2.83,8-8.5v-1H121.7z"/>
</svg>
