<?xml version="1.0" encoding="utf-8"?>
<!-- Generator: Adobe Illustrator 25.3.1, SVG Export Plug-In . SVG Version: 6.00 Build 0)  -->
<svg version="1.1" id="Capa_1" xmlns="http://www.w3.org/2000/svg" xmlns:xlink="http://www.w3.org/1999/xlink" x="0px" y="0px"
	 viewBox="0 0 250 250" style="enable-background:new 0 0 250 250;" xml:space="preserve">
<style type="text/css">
	.st0{fill:#F70606;}
</style>
<path d="M87.6,112.39c-1.67,0-2.5-0.83-2.5-2.5c0-2,0.83-3,2.5-3c7.33,0,13.41-1.33,18.25-4c4.83-2.66,8.67-5.58,11.5-8.75
	c2.83-3.16,5.41-7.58,7.75-13.25c0.66-1.66,1.66-2.16,3-1.5c2,0,2.67,1,2,3c0,0.34-0.59,2-1.75,5c-1.17,3-3.42,6.34-6.75,10
	c-2.67,3.67-6.84,7.09-12.5,10.25C103.43,110.81,96.26,112.39,87.6,112.39z M130.6,166.89c-8.67,0-16-3-22-9c-6-6-9-13.33-9-22
	c0-8.66,3-15.91,9-21.75c6-5.83,13.33-8.75,22-8.75c8.67,0,15.91,2.92,21.75,8.75c5.83,5.84,8.75,13.09,8.75,21.75
	c0,8.67-2.92,16-8.75,22C146.51,163.89,139.26,166.89,130.6,166.89z M130.6,110.39c-7,0-13,2.5-18,7.5s-7.5,11-7.5,18
	c0,7,2.5,13.09,7.5,18.25c5,5.17,11,7.75,18,7.75c7,0,12.92-2.58,17.75-7.75c4.83-5.16,7.25-11.25,7.25-18.25c0-7-2.42-13-7.25-18
	C143.52,112.89,137.6,110.39,130.6,110.39z M128.6,145.39c-0.34,0.34-1,0.5-2,0.5c-0.67,0-1.17-0.33-1.5-1c-1-1.33-0.84-2.5,0.5-3.5
	l8.5-5.5l-8.5-5.5c-1.67-1-1.84-2.16-0.5-3.5c0.66-0.66,1.33-1,2-1c0.66,0,1.17,0.17,1.5,0.5l10.5,7.5c2,1.33,2,2.67,0,4
	L128.6,145.39z"/>
</svg>
