<?xml version="1.0" encoding="utf-8"?>
<!-- Generator: Adobe Illustrator 25.3.1, SVG Export Plug-In . SVG Version: 6.00 Build 0)  -->
<svg version="1.1" id="Capa_1" xmlns="http://www.w3.org/2000/svg" xmlns:xlink="http://www.w3.org/1999/xlink" x="0px" y="0px"
	 viewBox="0 0 250 250" style="enable-background:new 0 0 250 250;" xml:space="preserve">
<style type="text/css">
	.st0{fill:#F70606;}
</style>
<path d="M85.35,109.64c0-2,0.83-3,2.5-3c7.33,0,13.41-1.33,18.25-4c4.83-2.66,8.66-5.58,11.5-8.75c2.83-3.16,5.41-7.58,7.75-13.25
	c0.66-1.66,1.67-2.16,3-1.5c2,0,2.66,1,2,3c0,0.34-0.59,2-1.75,5c-1.17,3-3.42,6.34-6.75,10c-2.67,3.67-6.84,7.09-12.5,10.25
	c-5.67,3.17-12.84,4.75-21.5,4.75C86.18,112.14,85.35,111.31,85.35,109.64z M99.35,136.14c0-8.67,3-15.91,9-21.75
	c6-5.83,13.33-8.75,22-8.75c8.66,0,15.91,2.92,21.75,8.75c5.83,5.84,8.75,13.09,8.75,21.75c0,8.67-2.92,16-8.75,22
	c-5.83,6-13.09,9-21.75,9c-8.67,0-16-3-22-9C102.35,152.14,99.35,144.81,99.35,136.14z M143.35,135.64c0,3.67-1.25,6.84-3.75,9.5
	c-2.5,2.67-5.59,4-9.25,4c-3.67,0-6.75-1.33-9.25-4c-2.5-2.66-3.75-5.83-3.75-9.5h-12.5c0,7.34,2.5,13.59,7.5,18.75
	c5,5.17,11,7.75,18,7.75c7,0,12.92-2.58,17.75-7.75c4.83-5.16,7.25-11.41,7.25-18.75H143.35z M154.85,131.14
	c-1-5.66-3.75-10.5-8.25-14.5c-4.5-4-9.92-6-16.25-6c-6.34,0-11.75,2-16.25,6c-4.5,4-7.42,8.84-8.75,14.5H154.85z M133.35,135.64
	c0,3-1,4.5-3,4.5c-2.34,0-3.5-1.5-3.5-4.5h-4c0,2.34,0.66,4.42,2,6.25c1.33,1.84,3.16,2.75,5.5,2.75c2,0,3.75-0.91,5.25-2.75
	c1.5-1.83,2.25-3.91,2.25-6.25H133.35z"/>
</svg>
