<?xml version="1.0" encoding="utf-8"?>
<!-- Generator: Adobe Illustrator 25.3.1, SVG Export Plug-In . SVG Version: 6.00 Build 0)  -->
<svg version="1.1" id="Capa_1" xmlns="http://www.w3.org/2000/svg" xmlns:xlink="http://www.w3.org/1999/xlink" x="0px" y="0px"
	 viewBox="0 0 250 250" style="enable-background:new 0 0 250 250;" xml:space="preserve">
<style type="text/css">
	.st0{fill:#F70606;}
</style>
<g>
	<path d="M86.43,148.08c-2,0-2.84-1-2.5-3c0.33-1,1.5-1.5,3.5-1.5c9,1,17,1.5,24,1.5c4.33,0,9.25-0.33,14.75-1
		c5.5-0.66,10.75-1.91,15.75-3.75c5-1.83,9.33-4.41,13-7.75c3.66-3.33,5.66-7.83,6-13.5c0-2.33,1-3.16,3-2.5
		c1.66,0,2.5,0.84,2.5,2.5c-0.34,6.34-2.42,11.42-6.25,15.25c-3.84,3.84-8.42,6.92-13.75,9.25c-5.34,2.33-11,3.92-17,4.75
		c-6,0.84-11.5,1.25-16.5,1.25C105.26,149.58,96.43,149.08,86.43,148.08z"/>
</g>
</svg>
