<?xml version="1.0" encoding="utf-8"?>
<!-- Generator: Adobe Illustrator 25.3.1, SVG Export Plug-In . SVG Version: 6.00 Build 0)  -->
<svg version="1.1" id="Capa_1" xmlns="http://www.w3.org/2000/svg" xmlns:xlink="http://www.w3.org/1999/xlink" x="0px" y="0px"
	 viewBox="0 0 250 250" style="enable-background:new 0 0 250 250;" xml:space="preserve">
<style type="text/css">
	.st0{fill:#F70606;}
</style>
<g>
	<path d="M86.93,154.58c-2.34,0-3.17-1-2.5-3c0.66-7,4-13.33,10-19c3.66-3,9-5.75,16-8.25s16.5-3.75,28.5-3.75
		c3.66,0,7.58,0.17,11.75,0.5c4.16,0.34,8.58,0.83,13.25,1.5c1.66,0,2.5,1,2.5,3c-0.67,1.67-1.67,2.5-3,2.5c-9-1-17.17-1.5-24.5-1.5
		c-3.67,0-8.34,0.34-14,1c-5.67,0.67-11.09,1.92-16.25,3.75c-5.17,1.84-9.59,4.42-13.25,7.75c-3.67,3.34-5.5,7.67-5.5,13
		C89.26,153.75,88.26,154.58,86.93,154.58z"/>
</g>
</svg>
