<?xml version="1.0" encoding="utf-8"?>
<!-- Generator: Adobe Illustrator 25.3.1, SVG Export Plug-In . SVG Version: 6.00 Build 0)  -->
<svg version="1.1" id="Capa_1" xmlns="http://www.w3.org/2000/svg" xmlns:xlink="http://www.w3.org/1999/xlink" x="0px" y="0px"
	 viewBox="0 0 250 250" style="enable-background:new 0 0 250 250;" xml:space="preserve">
<style type="text/css">
	.st0{fill:#F70606;}
</style>
<path d="M173.35,151.25h-97c-1.67,0-2.5-0.83-2.5-2.5c0-7,1.33-13.5,4-19.5c2.66-6,6.33-11.25,11-15.75
	c4.66-4.5,10.16-8.08,16.5-10.75c6.33-2.66,13-4,20-4c7,0,13.58,1.34,19.75,4c6.16,2.67,11.58,6.25,16.25,10.75
	c4.66,4.5,8.33,9.75,11,15.75c2.66,6,4,12.5,4,19.5C176.35,150.42,175.35,151.25,173.35,151.25z M78.85,146.25h92
	c-0.67-12-5.42-22.08-14.25-30.25c-8.84-8.16-19.42-12.25-31.75-12.25c-12.34,0-22.92,4.09-31.75,12.25
	C84.26,124.17,79.51,134.25,78.85,146.25z"/>
</svg>
