<?xml version="1.0" encoding="utf-8"?>
<!-- Generator: Adobe Illustrator 25.3.1, SVG Export Plug-In . SVG Version: 6.00 Build 0)  -->
<svg version="1.1" id="Capa_1" xmlns="http://www.w3.org/2000/svg" xmlns:xlink="http://www.w3.org/1999/xlink" x="0px" y="0px"
	 viewBox="0 0 250 250" style="enable-background:new 0 0 250 250;" xml:space="preserve">
<style type="text/css">
	.st0{fill:#F70606;}
</style>
<g>
	<path d="M176.93,143.08c-1.67,0-2.5-1-2.5-3c0-2.66-1.34-4-4-4c-1.67,0-2.5,1.67-2.5,5c0,6.33-2.84,9.5-8.5,9.5
		c-5.34,0-8-3.5-8-10.5c0-2.66-1.34-4-4-4c-1.67,0-2.5,1.67-2.5,5c0,6.33-2.67,9.5-8,9.5c-5.34,0-8-3.5-8-10.5c0-2.66-1.34-4-4-4
		c-1.67,0-2.5,1.67-2.5,5c0,6.33-2.84,9.5-8.5,9.5c-5.34,0-8-3.5-8-10.5c0-2.66-1.33-4-4-4c-1.67,0-2.5,1.67-2.5,5
		c0,6.33-2.67,9.5-8,9.5c-5.34,0-8-3.5-8-10.5c0-2.66-1.33-4-4-4c-1.67,0-2.5,1.33-2.5,4c0,2-0.84,3-2.5,3c-2,0-3-1-3-3
		c0-2.66,0.83-4.91,2.5-6.75c1.66-1.83,3.83-2.75,6.5-2.75c2.33,0,4.33,1,6,3c1.66,2,2.5,4.5,2.5,7.5c0,2.67,0.83,4,2.5,4
		c1.66,0,2.5-1.67,2.5-5c0-2.66,0.83-4.91,2.5-6.75c1.66-1.83,3.83-2.75,6.5-2.75c2.33,0,4.33,1,6,3c1.66,2,2.5,4.5,2.5,7.5
		c0,2.67,1,4,3,4c1.66,0,2.5-1.67,2.5-5c0-2.66,0.83-4.91,2.5-6.75c1.66-1.83,3.83-2.75,6.5-2.75c2.33,0,4.33,1,6,3
		c1.66,2,2.5,4.5,2.5,7.5c0,2.67,0.83,4,2.5,4c1.66,0,2.5-1.67,2.5-5c0-2.66,0.83-4.91,2.5-6.75c1.66-1.83,3.83-2.75,6.5-2.75
		c2.33,0,4.33,1,6,3c1.66,2,2.5,4.5,2.5,7.5c0,2.67,1,4,3,4c1.66,0,2.5-1.67,2.5-5c0-2.66,0.83-4.91,2.5-6.75
		c1.66-1.83,3.83-2.75,6.5-2.75c2.33,0,4.33,0.92,6,2.75c1.66,1.84,2.5,4.09,2.5,6.75C179.93,142.08,178.93,143.08,176.93,143.08z"
		/>
</g>
</svg>
