<?xml version="1.0" encoding="utf-8"?>
<!-- Generator: Adobe Illustrator 25.3.1, SVG Export Plug-In . SVG Version: 6.00 Build 0)  -->
<svg version="1.1" id="Capa_1" xmlns="http://www.w3.org/2000/svg" xmlns:xlink="http://www.w3.org/1999/xlink" x="0px" y="0px"
	 viewBox="0 0 250 250" style="enable-background:new 0 0 250 250;" xml:space="preserve">
<style type="text/css">
	.st0{fill:#F70606;}
</style>
<path d="M89.6,142.5l16.5-16.5l2-1l-2-1l-16.5-16.5c-1-1.33-1-2.5,0-3.5l14-14.5c0.66-0.66,1.33-1,2-1c0.66,0,1.33,0.34,2,1l16,16
	l1.5,2.5l1-3l15.5-15.5c0.66-0.66,1.33-1,2-1c0.66,0,1.33,0.34,2,1l14.5,14c1.33,1.34,1.33,2.67,0,4l-16,16l-2.5,1l2.5,1.5
	l16.5,16.5c1.33,1,1.33,2.17,0,3.5l-14.5,14.5c-0.34,0.34-1,0.5-2,0.5c-1,0-1.67-0.16-2-0.5l-15.5-16l-1.5-2.5l-1,2.5L107.6,161
	c-0.34,0.34-1,0.5-2,0.5c-1,0-1.67-0.16-2-0.5l-14-14.5C88.27,145.17,88.27,143.84,89.6,142.5z M105.6,156l16-17l-10-10.5l-17.5,16
	L105.6,156z M94.6,105l50,50l10.5-10.5l-50-49.5L94.6,105z M128.1,111l10.5,10.5l4.5-5l12-11l-11-11L128.1,111z"/>
</svg>
