<?xml version="1.0" encoding="utf-8"?>
<!-- Generator: Adobe Illustrator 25.3.1, SVG Export Plug-In . SVG Version: 6.00 Build 0)  -->
<svg version="1.1" id="Capa_1" xmlns="http://www.w3.org/2000/svg" xmlns:xlink="http://www.w3.org/1999/xlink" x="0px" y="0px"
	 viewBox="0 0 250 250" style="enable-background:new 0 0 250 250;" xml:space="preserve">
<style type="text/css">
	.st0{fill:#F70606;}
</style>
<path d="M110.1,136.25c0-2,0.83-3,2.5-3c2,0,3,1,3,3c0,2.67,1,4.84,3,6.5c2,1.67,4.5,2.5,7.5,2.5c2.66,0,4.75-1,6.25-3
	c1.5-2,2.25-4.16,2.25-6.5c0-6.67-2.84-10-8.5-10c-1.67,0-2.5-0.83-2.5-2.5c0-1.67,0.83-2.5,2.5-2.5c2.33,0,4.25-0.83,5.75-2.5
	c1.5-1.67,2.25-3.33,2.25-5c0-2.33-0.75-4.33-2.25-6c-1.5-1.66-3.42-2.5-5.75-2.5c-2.34,0-3.84,0.42-4.5,1.25
	c-0.67,0.84-1.34,1.92-2,3.25c-0.67,1.67-1.67,2.5-3,2.5c-1.67,0-2.5-1-2.5-3c0.33-2,1.5-4,3.5-6c2-2,4.83-3,8.5-3
	c3.66,0,6.83,1.25,9.5,3.75c2.66,2.5,4,5.75,4,9.75c0,4-1.84,7.34-5.5,10c4,3,6,7.17,6,12.5c0,3.67-1.34,7-4,10
	c-2.67,3-6,4.5-10,4.5c-4.67,0-8.5-1.25-11.5-3.75C111.6,144,110.1,140.59,110.1,136.25z"/>
</svg>
