<?xml version="1.0" encoding="utf-8"?>
<!-- Generator: Adobe Illustrator 25.3.1, SVG Export Plug-In . SVG Version: 6.00 Build 0)  -->
<svg version="1.1" id="Capa_1" xmlns="http://www.w3.org/2000/svg" xmlns:xlink="http://www.w3.org/1999/xlink" x="0px" y="0px"
	 viewBox="0 0 250 250" style="enable-background:new 0 0 250 250;" xml:space="preserve">
<style type="text/css">
	.st0{fill:#F70606;}
</style>
<g>
	<path d="M84.43,145.08c0-2,1-2.66,3-2c9,1,16.83,1.5,23.5,1.5c11.33,0,20.25-1.08,26.75-3.25c6.5-2.16,11.41-4.58,14.75-7.25
		c5.33-4.66,8.16-9.66,8.5-15c0-2.33,1-3.16,3-2.5c1.66,0,2.5,0.84,2.5,2.5c-0.67,5.34-2.67,10.17-6,14.5l6.5,13
		c2.66,4.34,2.83,8.34,0.5,12c-2.34,3.67-5.34,6.67-9,9h-0.5c-3.34,2-6.84,3-10.5,3c-5.34,0-9.34-2.33-12-7l-7-14
		c-2.67,0-5.42,0.08-8.25,0.25c-2.84,0.17-5.92,0.25-9.25,0.25c-3.67,0-7.5-0.16-11.5-0.5c-4-0.33-8.34-0.83-13-1.5
		C84.43,148.08,83.76,147.08,84.43,145.08z M148.43,143.08l2,4c1.33,2,1,3.34-1,4c-0.34,0.34-1,0.5-2,0.5c-0.34,0-0.84-0.33-1.5-1
		c-0.34,0-0.5-0.16-0.5-0.5l-2.5-5c-2.34,1-5.34,2-9,3c1,2.67,2.66,6.17,5,10.5c2.33,4.34,5.16,6.5,8.5,6.5c2.66,0,5.33-0.83,8-2.5
		c2.66-1.33,4.91-3.25,6.75-5.75c1.83-2.5,1.91-5.08,0.25-7.75c-1-2-2.09-4-3.25-6c-1.17-2-2.09-3.83-2.75-5.5
		c-1.34,1-2.59,2-3.75,3C151.51,141.58,150.09,142.42,148.43,143.08z"/>
</g>
</svg>
