<?xml version="1.0" encoding="utf-8"?>
<!-- Generator: Adobe Illustrator 25.3.1, SVG Export Plug-In . SVG Version: 6.00 Build 0)  -->
<svg version="1.1" id="Capa_1" xmlns="http://www.w3.org/2000/svg" xmlns:xlink="http://www.w3.org/1999/xlink" x="0px" y="0px"
	 viewBox="0 0 250 250" style="enable-background:new 0 0 250 250;" xml:space="preserve">
<style type="text/css">
	.st0{fill:#F70606;}
</style>
<g>
	<path d="M70.93,144.08c-2,0-3-1-3-3v-9.5c0-2,1-3,3-3c1.66,0,2.5,1,2.5,3v9.5C73.43,143.08,72.59,144.08,70.93,144.08z
		 M77.43,149.08c-1.67,0-2.5-1-2.5-3v-10c0-1.67,0.83-2.5,2.5-2.5c2,0,3,0.83,3,2.5v10C80.43,148.08,79.43,149.08,77.43,149.08z
		 M84.43,144.08c-2,0-3-1-3-3v-9.5c0-2,1-3,3-3c1.67,0,2.5,1,2.5,3v9.5C86.93,143.08,86.09,144.08,84.43,144.08z M90.93,149.08
		c-1.67,0-2.5-1-2.5-3v-10c0-1.67,0.83-2.5,2.5-2.5c2,0,3,0.83,3,2.5v10C93.93,148.08,92.93,149.08,90.93,149.08z M97.93,144.08
		c-2,0-3-1-3-3v-9.5c0-2,1-3,3-3c1.66,0,2.5,1,2.5,3v9.5C100.43,143.08,99.59,144.08,97.93,144.08z M104.43,149.08
		c-1.67,0-2.5-1-2.5-3v-10c0-1.67,0.83-2.5,2.5-2.5c2,0,3,0.83,3,2.5v10C107.43,148.08,106.43,149.08,104.43,149.08z M111.43,144.08
		c-2,0-3-1-3-3v-9.5c0-2,1-3,3-3c1.66,0,2.5,1,2.5,3v9.5C113.93,143.08,113.09,144.08,111.43,144.08z M117.93,149.08
		c-1.67,0-2.5-1-2.5-3v-10c0-1.67,0.83-2.5,2.5-2.5c2,0,3,0.83,3,2.5v10C120.93,148.08,119.93,149.08,117.93,149.08z M124.93,144.08
		c-2,0-3-1-3-3v-9.5c0-2,1-3,3-3c1.67,0,2.5,1,2.5,3v9.5C127.43,143.08,126.59,144.08,124.93,144.08z M131.43,149.08
		c-1.67,0-2.5-1-2.5-3v-10c0-1.67,0.83-2.5,2.5-2.5c2,0,3,0.83,3,2.5v10C134.43,148.08,133.43,149.08,131.43,149.08z M138.43,144.08
		c-2,0-3-1-3-3v-9.5c0-2,1-3,3-3c1.66,0,2.5,1,2.5,3v9.5C140.93,143.08,140.09,144.08,138.43,144.08z M145.43,149.08c-2,0-3-1-3-3
		v-10c0-1.67,1-2.5,3-2.5c1.66,0,2.5,0.83,2.5,2.5v10C147.93,148.08,147.09,149.08,145.43,149.08z M151.93,144.08
		c-1.67,0-2.5-1-2.5-3v-9.5c0-2,0.83-3,2.5-3c2,0,3,1,3,3v9.5C154.93,143.08,153.93,144.08,151.93,144.08z M158.93,149.08
		c-2,0-3-1-3-3v-10c0-1.67,1-2.5,3-2.5c1.66,0,2.5,0.83,2.5,2.5v10C161.43,148.08,160.59,149.08,158.93,149.08z M165.43,144.08
		c-1.67,0-2.5-1-2.5-3v-9.5c0-2,0.83-3,2.5-3c2,0,3,1,3,3v9.5C168.43,143.08,167.43,144.08,165.43,144.08z M172.43,149.08
		c-2,0-3-1-3-3v-10c0-1.67,1-2.5,3-2.5c1.67,0,2.5,0.83,2.5,2.5v10C174.93,148.08,174.09,149.08,172.43,149.08z M178.93,144.08
		c-1.67,0-2.5-1-2.5-3v-9.5c0-2,0.83-3,2.5-3c2,0,3,1,3,3v9.5C181.93,143.08,180.93,144.08,178.93,144.08z"/>
</g>
</svg>
