<?xml version="1.0" encoding="utf-8"?>
<!-- Generator: Adobe Illustrator 25.3.1, SVG Export Plug-In . SVG Version: 6.00 Build 0)  -->
<svg version="1.1" id="Capa_1" xmlns="http://www.w3.org/2000/svg" xmlns:xlink="http://www.w3.org/1999/xlink" x="0px" y="0px"
	 viewBox="0 0 250 250" style="enable-background:new 0 0 250 250;" xml:space="preserve">
<style type="text/css">
	.st0{fill:#F70606;}
</style>
<path d="M72.25,100c0-1.66,1-2.5,3-2.5h99.5c2,0,3,0.84,3,2.5c0,7.34-1.34,14.17-4,20.5c-2.67,6.34-6.42,11.84-11.25,16.5
	c-4.84,4.67-10.42,8.42-16.75,11.25c-6.34,2.84-13.17,4.25-20.5,4.25c-7.34,0-14.25-1.41-20.75-4.25
	c-6.5-2.83-12.09-6.58-16.75-11.25c-4.67-4.66-8.42-10.16-11.25-16.5C73.66,114.17,72.25,107.34,72.25,100z M77.75,102.5
	c0.66,12.67,5.5,23.34,14.5,32c9,8.67,19.83,13,32.5,13c6.33,0,12.33-1.16,18-3.5c5.66-2.33,10.58-5.5,14.75-9.5
	c4.16-4,7.58-8.75,10.25-14.25c2.66-5.5,4.16-11.41,4.5-17.75H77.75z"/>
</svg>
