<?xml version="1.0" encoding="utf-8"?>
<!-- Generator: Adobe Illustrator 25.3.1, SVG Export Plug-In . SVG Version: 6.00 Build 0)  -->
<svg version="1.1" id="Capa_1" xmlns="http://www.w3.org/2000/svg" xmlns:xlink="http://www.w3.org/1999/xlink" x="0px" y="0px"
	 viewBox="0 0 250 250" style="enable-background:new 0 0 250 250;" xml:space="preserve">
<style type="text/css">
	.st0{fill:#F70606;}
</style>
<path d="M124.85,138.5c-7.67,0-15.08-2-22.25-6c-7.17-4-13.42-9.66-18.75-17c-1-1-0.84-2.16,0.5-3.5c0.33-0.33,0.83-0.5,1.5-0.5
	c1,0,1.83,0.34,2.5,1c4.66,6.67,10.17,11.84,16.5,15.5c6.33,3.67,13,5.5,20,5.5c7.33,0,14.16-1.83,20.5-5.5
	c6.33-3.66,11.83-8.83,16.5-15.5c0.66-0.66,1.5-1,2.5-1c0.66,0,1.16,0.17,1.5,0.5c1.33,1.33,1.5,2.67,0.5,4
	c-5.34,7-11.59,12.5-18.75,16.5C140.43,136.5,132.85,138.5,124.85,138.5z"/>
</svg>
