<?xml version="1.0" encoding="utf-8"?>
<!-- Generator: Adobe Illustrator 25.3.1, SVG Export Plug-In . SVG Version: 6.00 Build 0)  -->
<svg version="1.1" id="Capa_1" xmlns="http://www.w3.org/2000/svg" xmlns:xlink="http://www.w3.org/1999/xlink" x="0px" y="0px"
	 viewBox="0 0 250 250" style="enable-background:new 0 0 250 250;" xml:space="preserve">
<style type="text/css">
	.st0{fill:#F70606;}
</style>
<path d="M124.85,111.5c16.66,0,30.5,7.5,41.5,22.5c1.33,1,1.16,2.34-0.5,4c-0.34,0-0.59,0.09-0.75,0.25
	c-0.17,0.17-0.42,0.25-0.75,0.25c-1,0-1.84-0.5-2.5-1.5c-4.67-6.33-10.25-11.33-16.75-15c-6.5-3.67-13.25-5.5-20.25-5.5
	c-14.34,0-26.5,6.84-36.5,20.5c-0.34,0.67-1,1-2,1c-1,0-1.67-0.16-2-0.5c-1.67-1-1.84-2.16-0.5-3.5
	C94.85,119,108.52,111.5,124.85,111.5z"/>
</svg>
