<?xml version="1.0" encoding="utf-8"?>
<!-- Generator: Adobe Illustrator 25.3.1, SVG Export Plug-In . SVG Version: 6.00 Build 0)  -->
<svg version="1.1" id="Capa_1" xmlns="http://www.w3.org/2000/svg" xmlns:xlink="http://www.w3.org/1999/xlink" x="0px" y="0px"
	 viewBox="0 0 250 250" style="enable-background:new 0 0 250 250;" xml:space="preserve">
<style type="text/css">
	.st0{fill:#F70606;}
</style>
<path d="M91.6,136c0-3.33,1.25-6.08,3.75-8.25c2.5-2.16,5.58-3.58,9.25-4.25c0.66-2,1.41-4.17,2.25-6.5c0.83-2.33,1.75-4.5,2.75-6.5
	c1.66-3.33,3.75-6.5,6.25-9.5c2.5-3,5.58-4.5,9.25-4.5c3.66,0,6.75,1.5,9.25,4.5c2.5,3,4.58,6.17,6.25,9.5c1,2,1.91,4.17,2.75,6.5
	c0.83,2.34,1.58,4.5,2.25,6.5c3.67,0.67,6.75,2.08,9.25,4.25c2.5,2.17,3.75,4.92,3.75,8.25c0,3.67-1.5,6.75-4.5,9.25
	c-3,2.5-6.67,3.75-11,3.75c-0.67,0-1.17-0.16-1.5-0.5c-0.34-0.33-0.84-0.66-1.5-1c-4,4-9,6-15,6c-6,0-11.17-2.16-15.5-6.5
	c-0.67,1.34-1.67,2-3,2c-4.34,0-7.92-1.25-10.75-3.75C93.01,142.75,91.6,139.67,91.6,136z M97.1,136c0,2,1,3.92,3,5.75
	c2,1.84,4.33,2.75,7,2.75c-2.34-4-3.5-8.16-3.5-12.5c0-1.66,0.16-2.83,0.5-3.5C99.43,129.5,97.1,132,97.1,136z M109.1,132
	c0,4.67,1.5,8.59,4.5,11.75c3,3.17,6.83,4.75,11.5,4.75c4.66,0,8.5-1.58,11.5-4.75c3-3.16,4.5-7.08,4.5-11.75
	c0-2.66-0.5-5.75-1.5-9.25c-1-3.5-2.25-6.91-3.75-10.25c-1.5-3.33-3.17-6.08-5-8.25c-1.84-2.16-3.75-3.25-5.75-3.25
	c-2,0-3.92,1.09-5.75,3.25c-1.84,2.17-3.5,4.92-5,8.25c-1.5,3.34-2.75,6.75-3.75,10.25C109.6,126.25,109.1,129.34,109.1,132z
	 M142.6,144.5c2.66,0,5.08-0.75,7.25-2.25c2.16-1.5,3.25-3.58,3.25-6.25c0-4-2.34-6.5-7-7.5c0.33,0.67,0.5,1.84,0.5,3.5
	C146.6,136.67,145.26,140.84,142.6,144.5z"/>
</svg>
