<?xml version="1.0" encoding="utf-8"?>
<!-- Generator: Adobe Illustrator 25.3.1, SVG Export Plug-In . SVG Version: 6.00 Build 0)  -->
<svg version="1.1" id="Capa_1" xmlns="http://www.w3.org/2000/svg" xmlns:xlink="http://www.w3.org/1999/xlink" x="0px" y="0px"
	 viewBox="0 0 250 250" style="enable-background:new 0 0 250 250;" xml:space="preserve">
<style type="text/css">
	.st0{fill:#F70606;}
</style>
<path d="M134.6,147.25h-19c-2.34,0-4.34-0.83-6-2.5c-1.67-1.67-2.5-3.83-2.5-6.5l4-27c0.66-5.66,3.5-8.5,8.5-8.5
	c1.67,0,2.5,0.83,2.5,2.5c0,1.34-0.83,2-2.5,2c-1.33,0-2.34,1.33-3,4l-4,27c0,2.67,1,4,3,4h19c2,0,3-1.33,3-4l-3.5-27
	c0-2.66-1-4-3-4c-1.67,0-2.5-0.66-2.5-2c0-1.67,0.83-2.5,2.5-2.5c5,0,7.83,2.84,8.5,8.5l3.5,27c0,2.67-0.84,4.84-2.5,6.5
	C138.93,146.42,136.93,147.25,134.6,147.25z"/>
</svg>
