<?xml version="1.0" encoding="utf-8"?>
<!-- Generator: Adobe Illustrator 25.3.1, SVG Export Plug-In . SVG Version: 6.00 Build 0)  -->
<svg version="1.1" id="Capa_1" xmlns="http://www.w3.org/2000/svg" xmlns:xlink="http://www.w3.org/1999/xlink" x="0px" y="0px"
	 viewBox="0 0 250 250" style="enable-background:new 0 0 250 250;" xml:space="preserve">
<style type="text/css">
	.st0{fill:#F70606;}
</style>
<path d="M125.1,151.5c-6,0-11.09-1.91-15.25-5.75c-4.17-3.83-6.25-8.58-6.25-14.25c0-2.66,0.5-5.83,1.5-9.5c1-3.66,2.33-7.16,4-10.5
	c4.66-8.66,10-13,16-13c3,0,5.83,1.25,8.5,3.75c2.66,2.5,5,5.5,7,9c2,3.5,3.5,7.08,4.5,10.75c1,3.67,1.5,6.84,1.5,9.5
	c0,5.67-2.17,10.42-6.5,14.25C135.76,149.59,130.76,151.5,125.1,151.5z M125.1,103c-2,0-3.92,1.09-5.75,3.25
	c-1.84,2.17-3.5,4.75-5,7.75c-1.5,3-2.75,6.17-3.75,9.5c-1,3.34-1.5,6-1.5,8c0,4,1.5,7.5,4.5,10.5c3,3,6.83,4.5,11.5,4.5
	c4.66,0,8.5-1.5,11.5-4.5c3-3,4.5-6.5,4.5-10.5c0-2-0.42-4.66-1.25-8c-0.84-3.33-2-6.5-3.5-9.5c-1.5-3-3.25-5.58-5.25-7.75
	C129.1,104.09,127.1,103,125.1,103z"/>
</svg>
