<?xml version="1.0" encoding="utf-8"?>
<!-- Generator: Adobe Illustrator 25.3.1, SVG Export Plug-In . SVG Version: 6.00 Build 0)  -->
<svg version="1.1" id="Capa_1" xmlns="http://www.w3.org/2000/svg" xmlns:xlink="http://www.w3.org/1999/xlink" x="0px" y="0px"
	 viewBox="0 0 250 250" style="enable-background:new 0 0 250 250;" xml:space="preserve">
<style type="text/css">
	.st0{fill:#F70606;}
</style>
<path d="M125.1,140.5c-2.34,0-4.84-1-7.5-3c-2.67-2-4.84-4.17-6.5-6.5c-1.67-1.66-3.42-4.16-5.25-7.5c-1.84-3.33-2.75-7-2.75-11
	c0-2,1-3,3-3c1.66,0,2.5,1,2.5,3c0,1.33,0.58,3.33,1.75,6c1.16,2.67,2.58,5.34,4.25,8c1.67,2.67,3.5,4.92,5.5,6.75
	c2,1.84,3.66,2.75,5,2.75c1.66,0,3.41-0.91,5.25-2.75c1.83-1.83,3.58-4.08,5.25-6.75c1.66-2.66,3.08-5.33,4.25-8
	c1.16-2.66,1.75-4.66,1.75-6c0-2,0.83-3,2.5-3c2,0,3,1,3,3c0,2.34-0.67,5.08-2,8.25c-1.34,3.17-3.09,6.25-5.25,9.25
	c-2.17,3-4.5,5.5-7,7.5C130.35,139.5,127.76,140.5,125.1,140.5z"/>
</svg>
