<?xml version="1.0" encoding="utf-8"?>
<!-- Generator: Adobe Illustrator 25.3.1, SVG Export Plug-In . SVG Version: 6.00 Build 0)  -->
<svg version="1.1" id="Capa_1" xmlns="http://www.w3.org/2000/svg" xmlns:xlink="http://www.w3.org/1999/xlink" x="0px" y="0px"
	 viewBox="0 0 250 250" style="enable-background:new 0 0 250 250;" xml:space="preserve">
<style type="text/css">
	.st0{fill:#F70606;}
</style>
<path d="M145.1,138c-1.67,0-2.5-1-2.5-3c0-4.66-1.75-8.91-5.25-12.75c-3.5-3.83-7.58-5.75-12.25-5.75c-4.67,0-8.75,1.92-12.25,5.75
	c-3.5,3.84-5.25,8.09-5.25,12.75c0,2-0.84,3-2.5,3c-2,0-3-1-3-3c0-6.33,2.25-11.75,6.75-16.25c4.5-4.5,9.92-6.75,16.25-6.75
	c6.33,0,11.75,2.25,16.25,6.75c4.5,4.5,6.75,9.92,6.75,16.25C148.1,137,147.1,138,145.1,138z M121.1,132c0,3-1,4.5-3,4.5
	c-2,0-3-1.5-3-4.5c0-3,1-4.5,3-4.5C120.1,127.5,121.1,129,121.1,132z M135.1,132c0,3-1,4.5-3,4.5c-2,0-3-1.5-3-4.5c0-3,1-4.5,3-4.5
	C134.1,127.5,135.1,129,135.1,132z"/>
</svg>
