<?xml version="1.0" encoding="utf-8"?>
<!-- Generator: Adobe Illustrator 25.3.1, SVG Export Plug-In . SVG Version: 6.00 Build 0)  -->
<svg version="1.1" id="Capa_1" xmlns="http://www.w3.org/2000/svg" xmlns:xlink="http://www.w3.org/1999/xlink" x="0px" y="0px"
	 viewBox="0 0 250 250" style="enable-background:new 0 0 250 250;" xml:space="preserve">
<style type="text/css">
	.st0{fill:#F70606;}
</style>
<path d="M145.1,139.5c-1.67,0-2.5-1-2.5-3c0-1.33-0.67-3.16-2-5.5c-1.34-2.33-2.92-4.66-4.75-7c-1.84-2.33-3.75-4.33-5.75-6
	c-2-1.67-3.67-2.5-5-2.5c-1.34,0-3,0.83-5,2.5c-2,1.67-3.92,3.67-5.75,6c-1.84,2.34-3.42,4.67-4.75,7c-1.33,2.34-2,4.17-2,5.5
	c0,2-0.84,3-2.5,3c-2,0-3-1-3-3c0-2.33,0.75-5,2.25-8c1.5-3,3.33-5.83,5.5-8.5c2.16-2.66,4.66-4.92,7.5-6.75
	c2.83-1.83,5.41-2.75,7.75-2.75c2.33,0,4.83,0.92,7.5,2.75c2.66,1.84,5.16,4.09,7.5,6.75c2.33,2.67,4.25,5.5,5.75,8.5
	c1.5,3,2.25,5.67,2.25,8C148.1,138.5,147.1,139.5,145.1,139.5z"/>
</svg>
