<?xml version="1.0" encoding="utf-8"?>
<!-- Generator: Adobe Illustrator 25.3.1, SVG Export Plug-In . SVG Version: 6.00 Build 0)  -->
<svg version="1.1" id="Capa_1" xmlns="http://www.w3.org/2000/svg" xmlns:xlink="http://www.w3.org/1999/xlink" x="0px" y="0px"
	 viewBox="0 0 250 250" style="enable-background:new 0 0 250 250;" xml:space="preserve">
<style type="text/css">
	.st0{fill:#F70606;}
</style>
<path d="M125.1,143c-5,0-9.84-1.67-14.5-5c-4.67-3.33-7-7.83-7-13.5c0-2.66,0.58-5.25,1.75-7.75c1.16-2.5,2.75-5.08,4.75-7.75
	c0.66-1.33,1.66-2,3-2c0.33,0,0.66,0.17,1,0.5c1.33,0.67,1.33,2,0,4c-3.33,4.34-5,8.67-5,13c0,4,1.67,7.17,5,9.5
	c3.33,2.34,7,3.5,11,3.5c4,0,7.58-1.08,10.75-3.25c3.16-2.16,4.75-5.42,4.75-9.75c0-4.66-1.5-9-4.5-13c-1.34-2-1.34-3.33,0-4l1-0.5
	c1.33,0,2.33,0.67,3,2c2,3,3.58,5.67,4.75,8c1.16,2.34,1.75,4.84,1.75,7.5c0,5.67-2.34,10.17-7,13.5
	C134.93,141.34,130.1,143,125.1,143z"/>
</svg>
