<?xml version="1.0" encoding="utf-8"?>
<!-- Generator: Adobe Illustrator 25.3.1, SVG Export Plug-In . SVG Version: 6.00 Build 0)  -->
<svg version="1.1" id="Capa_1" xmlns="http://www.w3.org/2000/svg" xmlns:xlink="http://www.w3.org/1999/xlink" x="0px" y="0px"
	 viewBox="0 0 250 250" style="enable-background:new 0 0 250 250;" xml:space="preserve">
<style type="text/css">
	.st0{fill:#F70606;}
</style>
<path d="M145.85,138c-2,0-3-1-3-3c0-4.66-1.75-8.91-5.25-12.75c-3.5-3.83-7.59-5.75-12.25-5.75c-4.67,0-8.84,1.92-12.5,5.75
	c-3.67,3.84-5.5,8.09-5.5,12.75c0,2-0.84,3-2.5,3c-2,0-3-1-3-3c0-6.33,2.33-11.75,7-16.25c4.66-4.5,10.16-6.75,16.5-6.75
	c6.33,0,11.75,2.25,16.25,6.75c4.5,4.5,6.75,9.92,6.75,16.25C148.35,137,147.51,138,145.85,138z"/>
</svg>
