<?xml version="1.0" encoding="utf-8"?>
<!-- Generator: Adobe Illustrator 25.3.1, SVG Export Plug-In . SVG Version: 6.00 Build 0)  -->
<svg version="1.1" id="Capa_1" xmlns="http://www.w3.org/2000/svg" xmlns:xlink="http://www.w3.org/1999/xlink" x="0px" y="0px"
	 viewBox="0 0 250 250" style="enable-background:new 0 0 250 250;" xml:space="preserve">
<style type="text/css">
	.st0{fill:#F70606;}
</style>
<path d="M125.1,140c-5.67,0-11.34-1.5-17-4.5c-5.67-3-8.5-7.83-8.5-14.5c0-3.33,1.33-6.66,4-10c0.66-0.66,1.33-1,2-1
	c0.33,0,0.83,0.34,1.5,1c1.33,1,1.5,2.34,0.5,4c-1.67,1.67-2.5,3.67-2.5,6c0,3.67,1.91,6.92,5.75,9.75
	c3.83,2.84,8.58,4.25,14.25,4.25c5.66,0,10.41-1.41,14.25-4.25c3.83-2.83,5.75-6.08,5.75-9.75c0-2.33-0.84-4.33-2.5-6
	c-1-1.33-0.84-2.66,0.5-4c0.33-0.33,1-0.5,2-0.5c1,0,1.66,0.34,2,1c2.33,2.34,3.5,5.5,3.5,9.5c0,6.67-2.84,11.5-8.5,14.5
	C136.43,138.5,130.76,140,125.1,140z"/>
</svg>
