<?xml version="1.0" encoding="utf-8"?>
<!-- Generator: Adobe Illustrator 25.3.1, SVG Export Plug-In . SVG Version: 6.00 Build 0)  -->
<svg version="1.1" id="Capa_1" xmlns="http://www.w3.org/2000/svg" xmlns:xlink="http://www.w3.org/1999/xlink" x="0px" y="0px"
	 viewBox="0 0 150 25" style="enable-background:new 0 0 150 25;" xml:space="preserve">
<style type="text/css">
	.st0{fill:#F70606;}
	.st1{fill:#F05768;}
	.st2{fill:none;stroke:#F05768;stroke-miterlimit:10;}
	.st3{opacity:0.3;fill:#F05768;}
	.st4{opacity:0.05;fill:#F05768;}
	.st5{opacity:0.3;}
</style>
<path class="st1" d="M143.92,8.68v1.85c-0.9-0.49-1.78-0.81-2.57-0.81c-0.23,0-1.15,0.04-1.15,0.58c0,0.32,0.18,0.45,1.03,0.81
	c1.64,0.65,3.11,1.26,3.11,2.93c0,1.69-1.26,2.65-3.38,2.65c-1.3,0-2.56-0.38-2.97-0.61v-1.84c1.31,0.68,2.16,0.77,2.65,0.77
	c0.86,0,1.26-0.29,1.26-0.63c0-0.47-0.32-0.59-1.58-1.12c-0.85-0.36-1.04-0.45-1.39-0.65c-0.65-0.4-1.1-1.1-1.1-1.98
	c0-1.4,1.19-2.57,3.38-2.57C142.7,8.06,143.51,8.46,143.92,8.68z"/>
<path class="st1" d="M130.4,11.43h3.6c-0.07-0.74-0.56-1.78-1.8-1.78C130.92,9.65,130.45,10.71,130.4,11.43z M136.16,13.91v1.67
	c-1.53,1.08-3.19,1.1-3.78,1.1c-3.67,0-4.73-2.52-4.73-4.3c0-2.66,2.07-4.32,4.39-4.32c1.73,0,4.32,1.03,4.27,4.73h-5.96
	c0.11,1.51,1.13,2.27,2.75,2.27C134.59,15.07,135.35,14.51,136.16,13.91z"/>
<path class="st1" d="M126.31,14.26v1.87c-0.43,0.16-1.51,0.56-2.81,0.56c-2.7,0-4.81-1.49-4.81-4.28c0-2.92,2.39-4.34,4.7-4.34
	c0.79,0,1.89,0.2,2.79,0.54v1.94c-0.41-0.22-1.24-0.56-2.12-0.56c-2.03,0-2.57,1.44-2.57,2.39c0,1.21,0.76,2.45,2.43,2.45
	C124.69,14.83,125.3,14.62,126.31,14.26z"/>
<path class="st1" d="M113.99,14.51v-2c-0.18,0.07-1.12,0.43-1.31,0.52c-0.23,0.11-0.97,0.47-0.97,1.21c0,0.58,0.47,0.88,0.83,0.88
	C112.61,15.12,113.33,15.12,113.99,14.51z M118.04,14.47v1.46c-0.61,0.38-1.66,0.76-2.45,0.76c-1.22,0-1.39-0.59-1.48-0.92
	c-0.61,0.4-1.46,0.92-2.74,0.92c-1.24,0-2.32-0.85-2.32-2.18c0-1.66,1.69-2.25,2.3-2.47c0.41-0.14,2.25-0.74,2.63-0.85
	c0-0.43,0.02-1.4-1.42-1.4c-1.62,0-2.83,1.12-3.08,1.4V9.07c1.21-0.76,2.47-1.01,3.62-1.01c0.41,0,2.52,0.02,3.26,1.35
	c0.13,0.22,0.25,0.5,0.25,1.51v3.28c0,0.29,0,0.67,0.41,0.67C117.31,14.87,117.58,14.72,118.04,14.47z"/>
<path class="st1" d="M107.1,8.22h1.19v1.75h-1.19v6.55h-2.61V9.97h-1.19V8.22h1.19c0.05-1.26,0.13-2.27,0.95-3.13
	c0.86-0.9,2-1.01,2.68-1.01c0.43,0,0.61,0.02,1.46,0.14l0.13,0.02v2.11c-0.36-0.05-0.74-0.11-1.17-0.11
	C107.1,6.24,107.1,7.23,107.1,8.22z"/>
<path class="st1" d="M99.35,11.36c0,1.93-0.49,3.38-1.21,4.91c-0.65,1.42-1.64,2.54-2.38,3.22c-0.13,0.11-0.25,0.14-0.34,0.14
	c-0.16,0-0.36-0.18-0.36-0.27c0-0.07,0.05-0.2,0.16-0.31c1.71-1.78,2.9-4.18,2.9-7.7c0-3.51-1.19-5.92-2.92-7.69
	c-0.09-0.11-0.14-0.25-0.14-0.34c0-0.09,0.2-0.25,0.36-0.25c0.09,0,0.22,0.04,0.34,0.13c0.74,0.7,1.78,1.69,2.54,3.26
	C98.97,7.81,99.35,9.47,99.35,11.36z"/>
<path class="st1" d="M93.02,9.83c-1.15,0-2.27,2.07-2.41,2.72c0.63,0.05,2.99-0.7,2.99-2.03C93.6,10.15,93.42,9.83,93.02,9.83z
	 M90.68,16.7c-1.17,0-1.67-0.58-1.67-1.76c0-1.51,0.99-3.4,2.3-4.7c0.58-0.58,1.55-1.21,2.41-1.21c0.7,0,1.03,0.52,1.03,0.95
	c0,0.88-0.67,1.82-1.67,2.34c-0.97,0.49-1.94,0.68-2.61,0.74c-0.09,0.22-0.23,0.81-0.23,1.66c0,0.81,0.59,1.13,0.94,1.13
	c0.88,0,1.67-0.67,2.05-1.28c0.04-0.05,0.09-0.09,0.16-0.02l0.2,0.16c0.09,0.05,0.09,0.11,0.02,0.16
	C93.15,15.52,92.07,16.7,90.68,16.7z"/>
<path class="st1" d="M84.81,9.83l-2.21,6.16c2.16-0.34,4.41-1.93,4.41-4.14c0-1.39-0.83-2.07-1.62-2.07
	C85.12,9.77,84.94,9.81,84.81,9.83z M83.82,9.34l0.58-1.67c0.05-0.14,0.11-0.2,0.23-0.25l1.12-0.4C85.78,7,85.84,7,85.87,7
	s0.05,0.04,0.05,0.07s0,0.09-0.04,0.14l-0.83,1.87c0.11-0.02,0.23-0.04,0.36-0.04c0.13-0.02,0.27-0.02,0.36-0.02
	c1.71,0,2.48,1.22,2.48,2.39c0,1.26-0.56,2.56-2.14,3.74c-0.79,0.58-2.27,1.19-3.74,1.35l-1.28,3.56c-0.32,0.97-0.18,1.22,0.58,1.22
	h0.5c0.09,0,0.14,0.09,0.13,0.14l-0.13,0.36c-0.04,0.05-0.07,0.11-0.22,0.11c-0.2,0-0.74-0.05-1.89-0.05
	c-1.24,0-1.73,0.05-1.93,0.05c-0.11,0-0.14-0.04-0.13-0.11l0.11-0.36c0.02-0.07,0.04-0.14,0.13-0.14h0.41c0.7,0,0.99-0.41,1.37-1.46
	l3.53-9.7c-0.88,0.25-1.85,1.15-2.23,1.62c-0.05,0.07-0.13,0.05-0.16,0.02l-0.2-0.18c-0.05-0.05-0.07-0.11-0.02-0.16
	C81.59,10.69,82.43,9.86,83.82,9.34z"/>
<path class="st1" d="M73.79,11.74l-0.25-0.11c-0.04-0.02-0.05-0.07-0.02-0.16c0.11-0.22,1.06-2.43,2.16-2.43
	c0.56,0,0.76,0.45,0.9,2.03c0.18,2.05,0.31,4.16,0.34,5.33l0.07-0.02c0.5-0.81,1.58-2.95,1.84-3.82c0.09-0.31,0.27-0.79,0.27-1.57
	c0-0.2-0.04-0.52-0.09-0.67c-0.07-0.16-0.2-0.41-0.2-0.65c0-0.29,0.16-0.65,0.74-0.65c0.49,0,0.72,0.45,0.72,0.9
	c0,1.17-0.68,2.68-1.21,3.82c-0.79,1.73-2.68,4.95-4.25,6.48c-0.49,0.5-1.67,1.64-2.74,1.64c-0.7,0-1.01-0.43-1.01-0.85
	c0-0.45,0.4-0.72,0.72-0.74c0.31-0.02,0.47,0.13,0.67,0.29c0.13,0.11,0.31,0.22,0.45,0.22c0.18,0,0.49-0.11,0.85-0.38
	c0.99-0.74,1.69-1.78,1.98-2.43c0.14-0.34,0.16-0.74,0.14-1.01c-0.04-0.41-0.38-5.31-0.58-6.25c-0.07-0.34-0.16-0.5-0.31-0.5
	c-0.32,0-0.9,1.06-1.04,1.46C73.92,11.75,73.84,11.75,73.79,11.74z"/>
<path class="st1" d="M67.88,15.42l2.27-5.24h-1.26c-0.11,0-0.14-0.04-0.11-0.14l0.14-0.4c0.04-0.09,0.09-0.13,0.2-0.13h1.3
	l0.94-2.09c0.09-0.18,0.14-0.22,0.29-0.27c0.2-0.05,0.67-0.23,0.81-0.31c0.11-0.05,0.2-0.11,0.27-0.11c0.11,0,0.14,0.11,0.02,0.36
	l-1.19,2.41h1.84c0.09,0,0.13,0.05,0.07,0.2L73.3,10.1c-0.02,0.05-0.09,0.09-0.16,0.09H71.3l-1.75,4.05
	c-0.22,0.5-0.41,0.95-0.41,1.15s0.07,0.31,0.23,0.31c0.52,0,1.69-1.03,1.8-1.15c0.05-0.07,0.11-0.05,0.16,0l0.2,0.22
	c0.05,0.05,0.05,0.09,0.02,0.16c-0.23,0.29-1.91,1.78-3.29,1.78c-0.45,0-0.58-0.18-0.58-0.43C67.68,16,67.77,15.69,67.88,15.42z"/>
<path class="st1" d="M62.07,11.36c0-1.93,0.49-3.38,1.21-4.91C63.92,5,64.91,3.91,65.65,3.2c0.13-0.09,0.25-0.13,0.34-0.13
	c0.16,0,0.36,0.16,0.36,0.25c0,0.07-0.05,0.22-0.16,0.32c-1.71,1.78-2.9,4.18-2.9,7.7c0,3.51,1.19,5.92,2.92,7.69
	c0.09,0.11,0.14,0.23,0.14,0.32c0,0.09-0.2,0.27-0.36,0.27c-0.09,0-0.22-0.04-0.34-0.14c-0.74-0.68-1.78-1.67-2.54-3.24
	C62.44,14.9,62.07,13.25,62.07,11.36z"/>
<polygon class="st1" points="58.37,8.23 52.81,20.5 50.04,20.5 52.47,15.17 49.23,8.23 52.02,8.23 53.76,12.33 55.63,8.23 "/>
<path class="st1" d="M43,10.58v3.82c0.29,0.22,0.74,0.54,1.49,0.54c0.81,0,2.03-0.5,2.03-2.52c0-0.61-0.09-1.3-0.47-1.8
	c-0.27-0.4-0.83-0.7-1.46-0.7C44.05,9.92,43.34,10.22,43,10.58z M43,8.23v0.72c0.67-0.56,1.51-0.88,2.38-0.88
	c1.89,0,3.83,1.57,3.83,4.21c0,2.86-1.82,4.41-4.07,4.41c-0.7,0-1.53-0.2-2.14-0.58v4.39h-2.63V8.23H43z"/>
<path class="st1" d="M32.42,10.58v3.82c0.29,0.22,0.74,0.54,1.49,0.54c0.81,0,2.03-0.5,2.03-2.52c0-0.61-0.09-1.3-0.47-1.8
	c-0.27-0.4-0.83-0.7-1.46-0.7C33.46,9.92,32.76,10.22,32.42,10.58z M32.42,8.23v0.72c0.67-0.56,1.51-0.88,2.38-0.88
	c1.89,0,3.83,1.57,3.83,4.21c0,2.86-1.82,4.41-4.07,4.41c-0.7,0-1.53-0.2-2.14-0.58v4.39h-2.63V8.23H32.42z"/>
<path class="st1" d="M24.82,14.51v-2c-0.18,0.07-1.12,0.43-1.31,0.52c-0.23,0.11-0.97,0.47-0.97,1.21c0,0.58,0.47,0.88,0.83,0.88
	C23.43,15.12,24.15,15.12,24.82,14.51z M28.87,14.47v1.46c-0.61,0.38-1.66,0.76-2.45,0.76c-1.22,0-1.39-0.59-1.48-0.92
	c-0.61,0.4-1.46,0.92-2.74,0.92c-1.24,0-2.32-0.85-2.32-2.18c0-1.66,1.69-2.25,2.3-2.47c0.41-0.14,2.25-0.74,2.63-0.85
	c0-0.43,0.02-1.4-1.42-1.4c-1.62,0-2.83,1.12-3.08,1.4V9.07c1.21-0.76,2.47-1.01,3.62-1.01c0.41,0,2.52,0.02,3.26,1.35
	c0.13,0.22,0.25,0.5,0.25,1.51v3.28c0,0.29,0,0.67,0.41,0.67C28.13,14.87,28.4,14.72,28.87,14.47z"/>
<polygon class="st1" points="17.92,4.25 17.92,16.52 14.84,16.52 14.84,11.56 8.76,11.56 8.76,16.52 5.66,16.52 5.66,4.25 
	8.76,4.25 8.76,9.18 14.84,9.18 14.84,4.25 "/>
</svg>
