<?xml version="1.0" encoding="utf-8"?>
<!-- Generator: Adobe Illustrator 25.3.1, SVG Export Plug-In . SVG Version: 6.00 Build 0)  -->
<svg version="1.1" id="Capa_1" xmlns="http://www.w3.org/2000/svg" xmlns:xlink="http://www.w3.org/1999/xlink" x="0px" y="0px"
	 viewBox="0 0 250 250" style="enable-background:new 0 0 250 250;" xml:space="preserve">
<style type="text/css">
	.st0{fill:#F70606;}
</style>
<path d="M96.98,140c0-8.66,2.91-16,8.75-22c5.83-6,13.08-9,21.75-9c8.67,0,16,3,22,9c6,6,9,13.34,9,22c0,8.67-3,15.92-9,21.75
	c-6,5.84-13.34,8.75-22,8.75c-8.67,0-15.92-2.91-21.75-8.75C99.89,155.92,96.98,148.67,96.98,140z M102.47,140
	c0,5,1.25,9.5,3.75,13.5c2.5,4,5.75,7.17,9.75,9.5c-3.67-3-5.5-6.66-5.5-11c0-4.33,1.41-7.58,4.25-9.75
	c2.83-2.16,5.75-3.25,8.75-3.25c3,0,5.83,1.09,8.5,3.25c2.66,2.17,4,5.42,4,9.75c0,4.34-1.33,7.58-4,9.75c-2.67,2.17-6,3.25-10,3.25
	c1.33,0.34,3.16,0.5,5.5,0.5c7,0,13-2.5,18-7.5s7.5-11,7.5-18c0-7-2.5-13.08-7.5-18.25c-5-5.16-11-7.75-18-7.75
	c-7,0-12.92,2.59-17.75,7.75C104.89,126.92,102.47,133,102.47,140z M115.48,152c0,5.67,2.66,8.5,8,8.5c2,0,3.75-0.75,5.25-2.25
	c1.5-1.5,2.25-3.58,2.25-6.25c0-5.66-2.5-8.5-7.5-8.5C118.14,143.5,115.48,146.34,115.48,152z M122.47,149.5c2.33,0,3.5,1.33,3.5,4
	c0,2.67-1.17,4-3.5,4c-2.33,0-3.5-1.33-3.5-4C118.98,150.84,120.14,149.5,122.47,149.5z M122.47,75.5c8.67,0,15.75,1.59,21.25,4.75
	c5.5,3.17,9.75,6.59,12.75,10.25c3,3.67,5.16,7,6.5,10c1.33,3,2,4.67,2,5c0.66,1.67,0,2.84-2,3.5h-0.5c-1.33,0-2.33-0.66-3-2
	c0-0.33-0.59-1.83-1.75-4.5c-1.17-2.66-3.09-5.66-5.75-9c-7.34-8.33-17.17-12.5-29.5-12.5c-2,0-3-1-3-3
	C119.48,76.34,120.48,75.5,122.47,75.5z"/>
</svg>
