<?xml version="1.0" encoding="utf-8"?>
<!-- Generator: Adobe Illustrator 25.3.1, SVG Export Plug-In . SVG Version: 6.00 Build 0)  -->
<svg version="1.1" id="Capa_1" xmlns="http://www.w3.org/2000/svg" xmlns:xlink="http://www.w3.org/1999/xlink" x="0px" y="0px"
	 viewBox="0 0 250 250" style="enable-background:new 0 0 250 250;" xml:space="preserve">
<style type="text/css">
	.st0{fill:#F70606;}
</style>
<path d="M127.71,170.25c-8.67,0-15.92-2.92-21.75-8.75c-5.84-5.83-8.75-13.08-8.75-21.75c0-8.66,2.91-16,8.75-22
	c5.83-6,13.08-9,21.75-9c8.66,0,16,3,22,9c6,6,9,13.33,9,22c0,8.67-3,15.92-9,21.75C143.71,167.34,136.37,170.25,127.71,170.25z
	 M127.71,113.75c-7,0-12.92,2.59-17.75,7.75c-4.84,5.17-7.25,11.25-7.25,18.25c0,6.67,2.41,12.59,7.25,17.75
	c4.83,5.17,10.75,7.75,17.75,7.75c7,0,13-2.58,18-7.75c5-5.16,7.5-11.08,7.5-17.75c0-7-2.5-13.08-7.5-18.25
	C140.71,116.34,134.71,113.75,127.71,113.75z M127.71,152.75c-3,0-5.92-1.08-8.75-3.25c-2.84-2.16-4.25-5.42-4.25-9.75
	c0-4.33,1.41-7.58,4.25-9.75c2.83-2.16,5.75-3.25,8.75-3.25c3,0,5.91,1.09,8.75,3.25c2.83,2.17,4.25,5.42,4.25,9.75
	c0,4.34-1.42,7.59-4.25,9.75C133.62,151.67,130.71,152.75,127.71,152.75z M162.21,109.25c-1,0-1.84-0.66-2.5-2
	c0-0.33-0.59-1.83-1.75-4.5c-1.17-2.66-3.09-5.66-5.75-9c-7.34-8.33-17.34-12.5-30-12.5c-1.67,0-2.5-1-2.5-3
	c0-1.67,0.83-2.5,2.5-2.5c8.66,0,15.83,1.59,21.5,4.75c5.66,3.17,9.83,6.59,12.5,10.25c3.33,3.67,5.58,7,6.75,10
	c1.16,3,1.75,4.67,1.75,5c0.66,2,0.16,3-1.5,3L162.21,109.25z M127.71,131.25c-5.34,0-8,2.84-8,8.5c0,5.67,2.66,8.5,8,8.5
	c5.33,0,8-2.83,8-8.5C135.71,134.08,133.04,131.25,127.71,131.25z M127.71,143.75c-2.34,0-3.5-1.33-3.5-4c0-2.66,1.16-4,3.5-4
	c2.33,0,3.5,1.34,3.5,4C131.21,142.42,130.04,143.75,127.71,143.75z"/>
</svg>
