<?xml version="1.0" encoding="utf-8"?>
<!-- Generator: Adobe Illustrator 25.3.1, SVG Export Plug-In . SVG Version: 6.00 Build 0)  -->
<svg version="1.1" id="Capa_1" xmlns="http://www.w3.org/2000/svg" xmlns:xlink="http://www.w3.org/1999/xlink" x="0px" y="0px"
	 viewBox="0 0 250 250" style="enable-background:new 0 0 250 250;" xml:space="preserve">
<style type="text/css">
	.st0{fill:#F70606;}
</style>
<path d="M94.25,135.25c0-8.66,3-15.91,9-21.75c6-5.83,13.33-8.75,22-8.75c8.66,0,15.91,2.92,21.75,8.75
	c5.83,5.84,8.75,13.09,8.75,21.75c0,8.67-2.92,16-8.75,22c-5.83,6-13.09,9-21.75,9c-8.67,0-16-3-22-9
	C97.25,151.25,94.25,143.92,94.25,135.25z M99.75,135.25c0,7,2.5,13.09,7.5,18.25c5,5.17,11,7.75,18,7.75s12.92-2.58,17.75-7.75
	c4.83-5.16,7.25-11.25,7.25-18.25c0-7-2.42-13-7.25-18c-4.84-5-10.75-7.5-17.75-7.5s-13,2.5-18,7.5S99.75,128.25,99.75,135.25z
	 M115.75,140.25l6.5-5.5l-5.5-4.5c-1-1-1-2,0-3c1-1,2-1,3,0l5,5l4.5-5c1-1,2-1,3,0c1,1,1,2,0,3l-5,4.5l6,5.5c1,1,1,2,0,3
	c-1,1-2,1-3,0l-5.5-6l-6,6c-1,1-2,1-3,0C114.75,142.25,114.75,141.25,115.75,140.25z M125.25,79.75c8.66,0,15.75,1.59,21.25,4.75
	c5.5,3.17,9.75,6.42,12.75,9.75c3.33,3.67,5.58,7.09,6.75,10.25c1.16,3.17,1.75,4.92,1.75,5.25c0.33,0.67,0.25,1.34-0.25,2
	c-0.5,0.67-1.09,1-1.75,1l-0.5,0.5c-1.34,0-2.34-0.66-3-2c-2.34-5.66-4.84-10.08-7.5-13.25c-2.67-3.16-6.42-6.08-11.25-8.75
	c-4.84-2.66-10.92-4-18.25-4c-2,0-3-1-3-3C122.25,80.59,123.25,79.75,125.25,79.75z"/>
</svg>
