<?xml version="1.0" encoding="utf-8"?>
<!-- Generator: Adobe Illustrator 25.3.1, SVG Export Plug-In . SVG Version: 6.00 Build 0)  -->
<svg version="1.1" id="Capa_1" xmlns="http://www.w3.org/2000/svg" xmlns:xlink="http://www.w3.org/1999/xlink" x="0px" y="0px"
	 viewBox="0 0 250 250" style="enable-background:new 0 0 250 250;" xml:space="preserve">
<style type="text/css">
	.st0{fill:#F70606;}
</style>
<g>
	<path d="M104.43,123.25c0-4.66,1-9.08,3-13.25c2-4.16,4.66-7.75,8-10.75c-0.67-1-1.42-1.91-2.25-2.75
		c-0.84-0.83-1.59-1.75-2.25-2.75c-1-1-0.84-2.16,0.5-3.5c0.33-0.33,1-0.5,2-0.5c1,0,1.66,0.34,2,1c4.66,6,10.25,11.09,16.75,15.25
		c6.5,4.17,12.75,7.59,18.75,10.25c6,2.67,13.5,5.17,22.5,7.5c2,0.67,2.66,1.84,2,3.5c-0.67,1.34-1.5,2-2.5,2h-1
		c-0.67,0-2.84-0.66-6.5-2c-0.67,7.67-3.84,14-9.5,19c-5.67,5-12.5,7.5-20.5,7.5c-8.67,0-16-2.91-22-8.75
		C107.43,139.17,104.43,131.92,104.43,123.25z M118.93,142.75c-1.34-2.67-2-5.17-2-7.5c0-4.33,1.41-7.58,4.25-9.75
		c2.83-2.16,5.75-3.25,8.75-3.25c3,0,5.83,1.09,8.5,3.25c2.66,2.17,4,5.42,4,9.75c0,4-1.34,7.08-4,9.25c-2.67,2.17-5.34,3.42-8,3.75
		c1,0.34,2.66,0.5,5,0.5c6.66,0,12.33-2.16,17-6.5c4.66-4.33,7.33-9.83,8-16.5c-5.67-2-12.17-4.83-19.5-8.5
		c-7.34-3.66-14.34-8.33-21-14c-6.67,5-10,11.67-10,20C109.93,130.92,112.93,137.42,118.93,142.75z M121.93,135.25
		c0,5.67,2.66,8.5,8,8.5c2,0,3.75-0.75,5.25-2.25c1.5-1.5,2.25-3.58,2.25-6.25c0-5.66-2.5-8.5-7.5-8.5
		C124.59,126.75,121.93,129.59,121.93,135.25z M128.93,132.75c2.33,0,3.5,1.33,3.5,4c0,2.67-1.17,4-3.5,4c-2.34,0-3.5-1.33-3.5-4
		C125.43,134.08,126.59,132.75,128.93,132.75z"/>
</g>
</svg>
