<?xml version="1.0" encoding="utf-8"?>
<!-- Generator: Adobe Illustrator 25.3.1, SVG Export Plug-In . SVG Version: 6.00 Build 0)  -->
<svg version="1.1" id="Capa_1" xmlns="http://www.w3.org/2000/svg" xmlns:xlink="http://www.w3.org/1999/xlink" x="0px" y="0px"
	 viewBox="0 0 250 250" style="enable-background:new 0 0 250 250;" xml:space="preserve">
<style type="text/css">
	.st0{fill:#F70606;}
</style>
<path d="M123.6,167.25c-8.67,0-16-3-22-9c-6-6-9-13.33-9-22c0-8.66,3-15.91,9-21.75c6-5.83,13.33-8.75,22-8.75
	c8.67,0,15.91,2.92,21.75,8.75c5.83,5.84,8.75,13.09,8.75,21.75c0,8.67-2.92,16-8.75,22C139.51,164.25,132.27,167.25,123.6,167.25z
	 M123.6,110.75c-7,0-13,2.5-18,7.5s-7.5,11-7.5,18c0,7,2.5,13.09,7.5,18.25c5,5.17,11,7.75,18,7.75c7,0,12.91-2.58,17.75-7.75
	c4.83-5.16,7.25-11.25,7.25-18.25c0-7-2.42-13-7.25-18C136.51,113.25,130.6,110.75,123.6,110.75z M124.1,146.75
	c-3.67,0-6.67-1.08-9-3.25c-2.34-2.16-3.5-4.91-3.5-8.25c0-1.66,0.83-2.5,2.5-2.5c2,0,3,0.84,3,2.5c0,4.67,2.33,7,7,7
	c4.33,0,6.5-2.33,6.5-7c0-1.66,0.83-2.5,2.5-2.5c2,0,3,0.84,3,2.5c0,3.34-1.08,6.09-3.25,8.25
	C130.68,145.67,127.76,146.75,124.1,146.75z M167.1,111.75c-8.67,0-15.83-1.58-21.5-4.75c-5.67-3.16-9.84-6.58-12.5-10.25
	c-3.34-3.67-5.59-7-6.75-10c-1.17-3-1.75-4.66-1.75-5c-0.67-2-0.17-3,1.5-3c2,0,3.16,0.5,3.5,1.5c0.33,1.34,0.83,2.84,1.5,4.5
	c1.66,2.34,3.67,5.34,6,9c7.33,8.34,17.33,12.5,30,12.5c1.67,0,2.5,1,2.5,3C169.6,110.92,168.77,111.75,167.1,111.75z"/>
</svg>
