<?xml version="1.0" encoding="utf-8"?>
<!-- Generator: Adobe Illustrator 25.3.1, SVG Export Plug-In . SVG Version: 6.00 Build 0)  -->
<svg version="1.1" id="Capa_1" xmlns="http://www.w3.org/2000/svg" xmlns:xlink="http://www.w3.org/1999/xlink" x="0px" y="0px"
	 viewBox="0 0 250 250" style="enable-background:new 0 0 250 250;" xml:space="preserve">
<style type="text/css">
	.st0{fill:#F70606;}
</style>
<path d="M94.35,98.62c0.66-1.66,1.83-2.16,3.5-1.5c4.33,1.67,8.75,2.84,13.25,3.5c4.5,0.67,9.08,1,13.75,1c10.33,0,19.41-1,27.25-3
	c7.83-2,11.91-3.16,12.25-3.5c1.66-0.66,2.83,0,3.5,2c0.66,1.67,0.16,2.84-1.5,3.5c-0.34,0-1,0.17-2,0.5c-1,0.34-2.5,0.84-4.5,1.5
	c3,7,3.33,14.09,1,21.25c-2.34,7.17-6.84,12.75-13.5,16.75c-4.34,3-9.67,4.5-16,4.5c-11.67,0-20.34-4.83-26-14.5
	c-5.34-7.66-6.34-16.33-3-26c-1-0.33-2.09-0.58-3.25-0.75c-1.17-0.16-2.25-0.58-3.25-1.25C94.18,101.62,93.68,100.3,94.35,98.62z
	 M107.85,105.62c-3,7.67-2.34,15,2,22c2.66,4.34,5.83,7.42,9.5,9.25c3.66,1.84,7.83,2.75,12.5,2.75c5,0,9.33-1.17,13-3.5
	c5.66-3.33,9.33-8.08,11-14.25c1.67-6.16,1.17-12.25-1.5-18.25c-2,0.67-4.09,1.17-6.25,1.5c-2.17,0.34-4.59,0.67-7.25,1
	c2.33,1.67,3.5,4.34,3.5,8c0,4.34-1.42,7.59-4.25,9.75c-2.84,2.17-5.75,3.25-8.75,3.25c-3,0-5.92-1.08-8.75-3.25
	c-2.84-2.16-4.25-5.42-4.25-9.75c0-3,0.83-5.33,2.5-7C116.18,107.12,111.85,106.62,107.85,105.62z M123.35,114.12
	c0,5.67,2.66,8.5,8,8.5c5.33,0,8-2.83,8-8.5c0-2.66-0.92-4.5-2.75-5.5c-1.84-1-3.59-1.5-5.25-1.5c-1.67,0-3.42,0.42-5.25,1.25
	C124.27,109.21,123.35,111.12,123.35,114.12z M127.85,114.12c0-2.66,1.16-4,3.5-4c2.33,0,3.5,1.34,3.5,4c0,2.67-1.17,4-3.5,4
	C129.02,118.12,127.85,116.8,127.85,114.12z"/>
</svg>
