<?xml version="1.0" encoding="utf-8"?>
<!-- Generator: Adobe Illustrator 25.3.1, SVG Export Plug-In . SVG Version: 6.00 Build 0)  -->
<svg version="1.1" id="Capa_1" xmlns="http://www.w3.org/2000/svg" xmlns:xlink="http://www.w3.org/1999/xlink" x="0px" y="0px"
	 viewBox="0 0 250 250" style="enable-background:new 0 0 250 250;" xml:space="preserve">
<style type="text/css">
	.st0{fill:#F70606;}
</style>
<g>
	<path d="M104.43,123.25c0-4.66,1-9.08,3-13.25c2-4.17,4.66-7.75,8-10.75c-0.67-1-1.42-1.91-2.25-2.75
		c-0.84-0.83-1.59-1.75-2.25-2.75c-1-1-0.84-2.16,0.5-3.5c0.33-0.33,1-0.5,2-0.5c1,0,1.66,0.34,2,1c4.66,6,10.25,11.09,16.75,15.25
		c6.5,4.17,12.75,7.59,18.75,10.25c6,2.67,13.5,5.17,22.5,7.5c2,0.67,2.66,1.84,2,3.5c-0.67,1.34-1.5,2-2.5,2h-1
		c-0.67,0-2.84-0.66-6.5-2c-0.67,7.67-3.84,14-9.5,19c-5.67,5-12.5,7.5-20.5,7.5c-8.67,0-16-2.92-22-8.75
		C107.43,139.17,104.43,131.92,104.43,123.25z M135.43,148.75c6.66,0,12.33-2.16,17-6.5c4.66-4.33,7.33-9.83,8-16.5
		c-3-1-6.34-2.25-10-3.75c-3.67-1.5-7.34-3.25-11-5.25c0.33,0.67,0.5,2,0.5,4c0,4.34-1.34,7.58-4,9.75c-2.67,2.17-5.5,3.25-8.5,3.25
		c-3,0-5.92-1.08-8.75-3.25c-2.84-2.16-4.25-5.41-4.25-9.75c0-3.67,1.16-6.58,3.5-8.75c2.33-2.16,4.83-3.58,7.5-4.25
		c-2.67-2-4.5-3.5-5.5-4.5c-6.67,5-10,11.67-10,20c0,6.67,2.5,12.58,7.5,17.75C122.43,146.17,128.43,148.75,135.43,148.75z
		 M127.43,129.25c5,0,7.5-2.83,7.5-8.5c0-2.66-0.75-4.75-2.25-6.25c-1.5-1.5-3.25-2.25-5.25-2.25c-5.34,0-8,2.84-8,8.5
		C119.43,126.42,122.09,129.25,127.43,129.25z M122.93,119.75c0-2.66,1.16-4,3.5-4c2.33,0,3.5,1.33,3.5,4c0,2.67-1.17,4-3.5,4
		C124.09,123.75,122.93,122.42,122.93,119.75z"/>
</g>
</svg>
