<?xml version="1.0" encoding="utf-8"?>
<!-- Generator: Adobe Illustrator 25.3.1, SVG Export Plug-In . SVG Version: 6.00 Build 0)  -->
<svg version="1.1" id="Capa_1" xmlns="http://www.w3.org/2000/svg" xmlns:xlink="http://www.w3.org/1999/xlink" x="0px" y="0px"
	 viewBox="0 0 250 250" style="enable-background:new 0 0 250 250;" xml:space="preserve">
<style type="text/css">
	.st0{fill:#F70606;}
</style>
<path d="M96.98,140c0-8.66,2.91-16,8.75-22c5.83-6,13.08-9,21.75-9c8.66,0,16,3,22,9c6,6,9,13.34,9,22c0,8.67-3,15.92-9,21.75
	c-6,5.84-13.34,8.75-22,8.75c-8.67,0-15.92-2.91-21.75-8.75C99.89,155.92,96.98,148.67,96.98,140z M127.48,165.5c7,0,13-2.5,18-7.5
	s7.5-11,7.5-18c0-7-2.5-13.08-7.5-18.25c-5-5.16-11-7.75-18-7.75c-4,0-7.17,0.67-9.5,2c0.66-0.33,1.83-0.5,3.5-0.5
	c2.66,0,5.41,1.09,8.25,3.25c2.83,2.17,4.25,5.42,4.25,9.75c0,4.34-1.34,7.59-4,9.75c-2.67,2.17-5.5,3.25-8.5,3.25
	c-3,0-5.92-1.08-8.75-3.25c-2.84-2.16-4.25-5.42-4.25-9.75c0-3.66,1-6.5,3-8.5c-6,5.34-9,12-9,20c0,7,2.41,13,7.25,18
	C114.55,163,120.48,165.5,127.48,165.5z M121.48,137c5,0,7.5-2.83,7.5-8.5c0-2.66-0.75-4.75-2.25-6.25c-1.5-1.5-3.25-2.25-5.25-2.25
	c-5.34,0-8,2.84-8,8.5C113.47,134.17,116.14,137,121.48,137z M120.48,123c2.33,0,3.5,1.34,3.5,4c0,2.67-1.17,4-3.5,4
	c-2.34,0-3.5-1.33-3.5-4C116.98,124.34,118.14,123,120.48,123z M122.48,75.5c8.66,0,15.75,1.59,21.25,4.75
	c5.5,3.17,9.75,6.59,12.75,10.25c3,3.67,5.16,7,6.5,10c1.33,3,2,4.67,2,5c0.66,1.67,0,2.84-2,3.5h-0.5c-1.34,0-2.34-0.66-3-2
	c0-0.33-0.59-1.83-1.75-4.5c-1.17-2.66-3.09-5.66-5.75-9c-7.34-8.33-17.17-12.5-29.5-12.5c-2,0-3-1-3-3
	C119.48,76.34,120.48,75.5,122.48,75.5z"/>
</svg>
