<?xml version="1.0" encoding="utf-8"?>
<!-- Generator: Adobe Illustrator 25.3.1, SVG Export Plug-In . SVG Version: 6.00 Build 0)  -->
<svg version="1.1" id="Capa_1" xmlns="http://www.w3.org/2000/svg" xmlns:xlink="http://www.w3.org/1999/xlink" x="0px" y="0px"
	 viewBox="0 0 250 250" style="enable-background:new 0 0 250 250;" xml:space="preserve">
<style type="text/css">
	.st0{fill:#F70606;}
</style>
<path d="M123.6,167.25c-8.67,0-16-3-22-9c-6-6-9-13.33-9-22c0-8.66,3-15.91,9-21.75c6-5.83,13.33-8.75,22-8.75
	c8.66,0,15.91,2.92,21.75,8.75c5.83,5.84,8.75,13.09,8.75,21.75c0,8.67-2.92,16-8.75,22C139.51,164.25,132.26,167.25,123.6,167.25z
	 M123.6,110.25c-7,0-13,2.59-18,7.75c-5,5.17-7.5,11.25-7.5,18.25c0,7,2.5,13.17,7.5,18.5c5,5.34,11,8,18,8c7,0,12.91-2.66,17.75-8
	c4.83-5.33,7.25-11.5,7.25-18.5c0-7-2.42-13.08-7.25-18.25C136.51,112.84,130.6,110.25,123.6,110.25z M124.1,127.75
	c3.66,0,6.75,1.25,9.25,3.75s3.75,5.59,3.75,9.25c0,1.67-1,2.5-3,2.5c-1.67,0-2.5-0.83-2.5-2.5c0-2-0.75-3.91-2.25-5.75
	c-1.5-1.83-3.25-2.75-5.25-2.75c-2.34,0-4.17,0.92-5.5,2.75c-1.34,1.84-2,3.75-2,5.75c0,1.67-1,2.5-3,2.5c-1.67,0-2.5-0.83-2.5-2.5
	c0-3.66,1.25-6.75,3.75-9.25S120.43,127.75,124.1,127.75z M167.1,111.75c-8.67,0-15.83-1.58-21.5-4.75
	c-5.67-3.16-9.84-6.58-12.5-10.25c-3.34-3.67-5.59-7-6.75-10c-1.17-3-1.75-4.66-1.75-5c-0.67-2-0.17-3,1.5-3c2,0,3.16,0.5,3.5,1.5
	c0.33,1.34,0.83,2.84,1.5,4.5c1.66,2.34,3.66,5.34,6,9c7.33,8.34,17.33,12.5,30,12.5c1.67,0,2.5,1,2.5,3
	C169.6,110.92,168.76,111.75,167.1,111.75z"/>
</svg>
