<?xml version="1.0" encoding="utf-8"?>
<!-- Generator: Adobe Illustrator 25.3.1, SVG Export Plug-In . SVG Version: 6.00 Build 0)  -->
<svg version="1.1" id="Capa_1" xmlns="http://www.w3.org/2000/svg" xmlns:xlink="http://www.w3.org/1999/xlink" x="0px" y="0px"
	 viewBox="0 0 250 250" style="enable-background:new 0 0 250 250;" xml:space="preserve">
<style type="text/css">
	.st0{fill:#F70606;}
</style>
<path d="M117.96,172.5c-3.34,0-5.92-1-7.75-3c-1.84-2-2.09-4.66-0.75-8c-0.34,0-0.67,0.08-1,0.25c-0.34,0.17-0.67,0.25-1,0.25
	c-1.67,0-3.09-0.58-4.25-1.75c-1.17-1.17-1.75-2.58-1.75-4.25c0-1.66,0.66-3.16,2-4.5c0.33-0.33,0.83-0.66,1.5-1
	c-7-5-10.5-12.16-10.5-21.5c0-8.67,2.91-15.83,8.75-21.5c5.83-5.66,13.08-8.5,21.75-8.5c8.66,0,16,2.84,22,8.5
	c6,5.67,9,12.84,9,21.5c0,8.67-2.75,15.83-8.25,21.5c-5.5,5.67-12.25,8.5-20.25,8.5c0,0.34,0.16,0.67,0.5,1
	c0.33,0.34,0.5,1.17,0.5,2.5c0,2.67-0.92,5-2.75,7C123.87,171.5,121.29,172.5,117.96,172.5z M113.46,158c0.66,0.67,0.91,1.34,0.75,2
	c-0.17,0.67-0.42,1.5-0.75,2.5c-0.67,3.34,0.83,5,4.5,5c2.66,0,4.5-0.91,5.5-2.75c1-1.83,0.83-3.75-0.5-5.75
	c-0.34-0.66-0.42-1.58-0.25-2.75c0.16-1.16,0.91-1.75,2.25-1.75c7,0,13-2.5,18-7.5s7.5-11,7.5-18c0-7-2.5-12.92-7.5-17.75
	c-5-4.83-11-7.25-18-7.25c-7,0-12.92,2.42-17.75,7.25c-4.84,4.84-7.25,10.75-7.25,17.75c0,4,0.75,7.75,2.25,11.25
	c1.5,3.5,4.08,6.09,7.75,7.75c1,0.67,1.5,1.59,1.5,2.75c0,1.17-0.84,1.75-2.5,1.75c-0.67,0-1.34,0.67-2,2
	c-0.67,1.34-0.17,2.34,1.5,3c0.66,0.34,1.25,0.42,1.75,0.25c0.5-0.16,1.08-0.25,1.75-0.25C112.62,157.5,113.12,157.67,113.46,158z
	 M124.96,142c-3,0-5.92-1.08-8.75-3.25c-2.84-2.16-4.25-5.41-4.25-9.75c0-4.33,1.41-7.58,4.25-9.75c2.83-2.16,5.75-3.25,8.75-3.25
	c3,0,5.91,1.09,8.75,3.25c2.83,2.17,4.25,5.42,4.25,9.75c0,4.34-1.42,7.58-4.25,9.75C130.87,140.92,127.96,142,124.96,142z
	 M124.96,120.5c-5.34,0-8,2.84-8,8.5c0,5.67,2.66,8.5,8,8.5c5.33,0,8-2.83,8-8.5C132.96,123.34,130.29,120.5,124.96,120.5z
	 M124.96,133c-2.34,0-3.5-1.33-3.5-4c0-2.66,1.16-4,3.5-4c2.33,0,3.5,1.34,3.5,4C128.46,131.67,127.29,133,124.96,133z M162.46,105
	c-0.34-0.66-1-2.25-2-4.75c-1-2.5-2.84-5.42-5.5-8.75c-7.34-8.33-17.34-12.5-30-12.5c-1.67,0-2.5-1-2.5-3c0-1.66,0.83-2.5,2.5-2.5
	c8.66,0,15.83,1.59,21.5,4.75c5.66,3.17,9.83,6.42,12.5,9.75c3.33,3.67,5.5,7,6.5,10c1,3,1.66,4.84,2,5.5c0.66,1.34,0.16,2.34-1.5,3
	C163.96,106.5,162.79,106,162.46,105z"/>
</svg>
