<?xml version="1.0" encoding="utf-8"?>
<!-- Generator: Adobe Illustrator 25.3.1, SVG Export Plug-In . SVG Version: 6.00 Build 0)  -->
<svg version="1.1" id="Capa_1" xmlns="http://www.w3.org/2000/svg" xmlns:xlink="http://www.w3.org/1999/xlink" x="0px" y="0px"
	 viewBox="0 0 250 250" style="enable-background:new 0 0 250 250;" xml:space="preserve">
<style type="text/css">
	.st0{fill:#F70606;}
</style>
<path d="M125,166c-8.67,0-16-3-22-9c-6-6-9-13.33-9-22c0-8.66,3-15.91,9-21.75c6-5.83,13.33-8.75,22-8.75
	c8.67,0,15.91,2.92,21.75,8.75c5.83,5.84,8.75,13.09,8.75,21.75c0,8.67-2.92,16-8.75,22C140.91,163,133.67,166,125,166z M125,109
	c-7,0-13,2.59-18,7.75c-5,5.17-7.5,11.25-7.5,18.25c0,7,2.5,13.17,7.5,18.5c5,5.34,11,8,18,8c7,0,12.91-2.66,17.75-8
	c4.83-5.33,7.25-11.5,7.25-18.5c0-7-2.42-13.08-7.25-18.25C137.91,111.59,132,109,125,109z M125.5,126.5c3.66,0,6.75,1.25,9.25,3.75
	c2.5,2.5,3.75,5.59,3.75,9.25c0,1.67-1,2.5-3,2.5c-1.67,0-2.5-0.83-2.5-2.5c0-2-0.75-3.91-2.25-5.75c-1.5-1.83-3.25-2.75-5.25-2.75
	c-2.34,0-4.17,0.92-5.5,2.75c-1.33,1.84-2,3.75-2,5.75c0,1.67-1,2.5-3,2.5c-1.67,0-2.5-0.83-2.5-2.5c0-3.66,1.25-6.75,3.75-9.25
	C118.75,127.75,121.83,126.5,125.5,126.5z M165.5,113.5c-1.67,0-2.5-0.66-2.5-2c0-0.33-0.59-1.83-1.75-4.5
	c-1.17-2.66-3.09-5.66-5.75-9c-7.34-8.33-17.34-12.5-30-12.5c-1.67,0-2.5-1-2.5-3c0-1.66,0.83-2.5,2.5-2.5
	c8.66,0,15.83,1.59,21.5,4.75c5.66,3.17,9.83,6.42,12.5,9.75c3.33,3.67,5.58,7.09,6.75,10.25c1.17,3.17,1.75,4.92,1.75,5.25
	c0.33,0.67,0.25,1.34-0.25,2c-0.5,0.67-1.09,1-1.75,1L165.5,113.5z"/>
</svg>
