<?xml version="1.0" encoding="utf-8"?>
<!-- Generator: Adobe Illustrator 25.3.1, SVG Export Plug-In . SVG Version: 6.00 Build 0)  -->
<svg version="1.1" id="Capa_1" xmlns="http://www.w3.org/2000/svg" xmlns:xlink="http://www.w3.org/1999/xlink" x="0px" y="0px"
	 viewBox="0 0 250 250" style="enable-background:new 0 0 250 250;" xml:space="preserve">
<style type="text/css">
	.st0{fill:#F70606;}
</style>
<g>
	<path d="M128.93,179.25c-3.34,0-5.92-1-7.75-3c-1.84-2-2.09-4.66-0.75-8c-0.34,0-0.67,0.09-1,0.25c-0.34,0.17-0.67,0.25-1,0.25
		c-1.67,0-3.09-0.58-4.25-1.75c-1.17-1.16-1.75-2.58-1.75-4.25c0-1.66,0.66-3.16,2-4.5c0.33-0.33,0.83-0.66,1.5-1
		c-7-5-10.5-12.16-10.5-21.5c0-8.66,2.92-15.83,8.75-21.5c5.83-5.66,13.08-8.5,21.75-8.5c8.67,0,16,2.84,22,8.5
		c6,5.67,9,12.84,9,21.5c0,8.67-2.75,15.84-8.25,21.5c-5.5,5.67-12.25,8.5-20.25,8.5c0,0.34,0.16,0.67,0.5,1
		c0.33,0.34,0.5,1.17,0.5,2.5c0,2.67-0.92,5-2.75,7C134.84,178.25,132.26,179.25,128.93,179.25z M124.43,164.75
		c0.66,0.67,0.91,1.34,0.75,2c-0.17,0.67-0.42,1.5-0.75,2.5c-0.67,3.33,0.83,5,4.5,5c2.66,0,4.5-0.91,5.5-2.75
		c1-1.83,0.83-3.75-0.5-5.75c-0.34-0.66-0.42-1.58-0.25-2.75c0.16-1.16,0.91-1.75,2.25-1.75c7,0,13-2.5,18-7.5s7.5-11,7.5-18
		c0-7-2.5-12.91-7.5-17.75c-5-4.83-11-7.25-18-7.25c-7,0-12.92,2.42-17.75,7.25c-4.84,4.84-7.25,10.75-7.25,17.75
		c0,4,0.75,7.75,2.25,11.25c1.5,3.5,4.08,6.09,7.75,7.75c1,0.67,1.5,1.59,1.5,2.75c0,1.17-0.84,1.75-2.5,1.75c-0.67,0-1.34,0.67-2,2
		c-0.67,1.33-0.17,2.34,1.5,3c0.66,0.34,1.25,0.42,1.75,0.25c0.5-0.16,1.08-0.25,1.75-0.25
		C123.59,164.25,124.09,164.42,124.43,164.75z M127.43,138.25c-2-1.33-2-2.66,0-4l10.5-7.5c0.33-0.33,0.83-0.5,1.5-0.5
		c0.66,0,1.33,0.34,2,1c1.33,1.34,1.16,2.5-0.5,3.5l-8.5,5.5l8.5,5.5c1.33,1,1.5,2.17,0.5,3.5c-0.34,0.67-0.84,1-1.5,1
		c-1,0-1.67-0.16-2-0.5L127.43,138.25z M178.93,111.75c-8.67,0-15.84-1.58-21.5-4.75c-5.67-3.16-9.84-6.58-12.5-10.25
		c-3.34-3.66-5.59-7-6.75-10c-1.17-3-1.75-4.66-1.75-5c-0.67-2-0.17-3,1.5-3c2,0,3.16,0.5,3.5,1.5c0,0.34,0.58,1.84,1.75,4.5
		c1.16,2.67,3.08,5.67,5.75,9c7.33,8.33,17.33,12.5,30,12.5c1.66,0,2.5,1,2.5,3C181.43,110.92,180.59,111.75,178.93,111.75z"/>
</g>
</svg>
