<?xml version="1.0" encoding="utf-8"?>
<!-- Generator: Adobe Illustrator 25.3.1, SVG Export Plug-In . SVG Version: 6.00 Build 0)  -->
<svg version="1.1" id="Capa_1" xmlns="http://www.w3.org/2000/svg" xmlns:xlink="http://www.w3.org/1999/xlink" x="0px" y="0px"
	 viewBox="0 0 250 250" style="enable-background:new 0 0 250 250;" xml:space="preserve">
<style type="text/css">
	.st0{fill:#F70606;}
</style>
<g>
	<path d="M135.93,105.75c8.66,0,15.91,2.92,21.75,8.75c5.83,5.83,8.75,13.09,8.75,21.75c0,8.67-2.92,16-8.75,22
		c-5.84,6-13.09,9-21.75,9c-8.67,0-16-3-22-9c-6-6-9-13.33-9-22c0-8.66,3-15.91,9-21.75C119.93,108.67,127.26,105.75,135.93,105.75z
		 M135.93,162.25c7,0,12.91-2.58,17.75-7.75c4.83-5.16,7.25-11.25,7.25-18.25s-2.42-13-7.25-18c-4.84-5-10.75-7.5-17.75-7.5
		c-7,0-13,2.5-18,7.5s-7.5,11-7.5,18s2.5,13.09,7.5,18.25C122.93,159.67,128.93,162.25,135.93,162.25z M126.43,141.25l6.5-5.5
		l-5.5-4.5c-1-1-1-2,0-3c1-1,2-1,3,0l5,5l4.5-5c1-1,2-1,3,0c1,1,1,2,0,3l-5,4.5l6,5.5c1,1,1,2,0,3c-1,1-2,1-3,0l-5.5-6l-6,6
		c-1,1-2,1-3,0C125.43,143.25,125.43,142.25,126.43,141.25z M137.93,78.75c2,0,3.16,0.5,3.5,1.5c0,0.34,0.58,1.84,1.75,4.5
		c1.16,2.67,3.08,5.67,5.75,9c7.33,8.33,17.33,12.5,30,12.5c1.66,0,2.5,1,2.5,3c0,1.67-0.84,2.5-2.5,2.5
		c-8.67,0-15.84-1.58-21.5-4.75c-5.67-3.16-9.84-6.58-12.5-10.25c-3.34-3.66-5.59-7-6.75-10c-1.17-3-1.75-4.66-1.75-5
		C135.76,79.75,136.26,78.75,137.93,78.75z"/>
</g>
</svg>
