<?xml version="1.0" encoding="utf-8"?>
<!-- Generator: Adobe Illustrator 25.3.1, SVG Export Plug-In . SVG Version: 6.00 Build 0)  -->
<svg version="1.1" id="Capa_1" xmlns="http://www.w3.org/2000/svg" xmlns:xlink="http://www.w3.org/1999/xlink" x="0px" y="0px"
	 viewBox="0 0 250 250" style="enable-background:new 0 0 250 250;" xml:space="preserve">
<style type="text/css">
	.st0{fill:#F70606;}
</style>
<path d="M124.75,166c-8.67,0-15.92-3-21.75-9c-5.84-6-8.75-13.33-8.75-22c0-8.66,2.91-15.91,8.75-21.75
	c5.83-5.83,13.08-8.75,21.75-8.75c8.66,0,16,2.92,22,8.75c6,5.84,9,13.09,9,21.75c0,8.67-3,16-9,22
	C140.75,163,133.41,166,124.75,166z M124.75,109.5c-7,0-12.92,2.5-17.75,7.5c-4.84,5-7.25,11-7.25,18c0,7,2.41,13.09,7.25,18.25
	c4.83,5.17,10.75,7.75,17.75,7.75c7,0,13-2.58,18-7.75c5-5.16,7.5-11.25,7.5-18.25c0-7-2.5-13-7.5-18S131.75,109.5,124.75,109.5z
	 M137.25,135.5c-1,2.67-3.67,5.17-8,7.5c-2.34,1.33-4.67,2.5-7,3.5c-1.67-2.33-3-4.5-4-6.5c-1-1.66-1.92-3.5-2.75-5.5
	c-0.84-2-0.92-3.83-0.25-5.5c1.33-3,3.33-4.5,6-4.5c0.33,0,0.58,0.09,0.75,0.25c0.16,0.17,0.42,0.25,0.75,0.25
	c3.66,1,4.83,3.34,3.5,7c2-2.66,4-4,6-4c0.33,0,0.58,0.08,0.75,0.25c0.16,0.17,0.41,0.25,0.75,0.25
	C137.42,129.5,138.58,131.84,137.25,135.5z M165.25,113.5c-1.67,0-2.5-0.66-2.5-2c0-0.33-0.59-1.83-1.75-4.5
	c-1.17-2.66-3.09-5.66-5.75-9c-7.34-8.33-17.34-12.5-30-12.5c-1.67,0-2.5-1-2.5-3c0-1.66,0.83-2.5,2.5-2.5
	c8.66,0,15.83,1.59,21.5,4.75c5.66,3.17,9.83,6.42,12.5,9.75c3.33,3.67,5.58,7.09,6.75,10.25c1.16,3.17,1.75,4.92,1.75,5.25
	c0.33,0.67,0.25,1.34-0.25,2c-0.5,0.67-1.09,1-1.75,1L165.25,113.5z"/>
</svg>
