<?xml version="1.0" encoding="utf-8"?>
<!-- Generator: Adobe Illustrator 25.3.1, SVG Export Plug-In . SVG Version: 6.00 Build 0)  -->
<svg version="1.1" id="Capa_1" xmlns="http://www.w3.org/2000/svg" xmlns:xlink="http://www.w3.org/1999/xlink" x="0px" y="0px"
	 viewBox="0 0 250 250" style="enable-background:new 0 0 250 250;" xml:space="preserve">
<style type="text/css">
	.st0{fill:#F70606;}
</style>
<path d="M94,135.25c0-8.67,3-15.91,9-21.75c6-5.83,13.33-8.75,22-8.75c8.67,0,15.91,2.92,21.75,8.75
	c5.83,5.84,8.75,13.09,8.75,21.75c0,8.67-2.92,16-8.75,22c-5.84,6-13.09,9-21.75,9c-8.67,0-16-3-22-9C97,151.25,94,143.92,94,135.25
	z M128,134.25c0,4-1.17,7.34-3.5,10c-2.34,2.67-5.5,4-9.5,4c-4,0-7.09-1.41-9.25-4.25c-2.17-2.83-3.25-6.08-3.25-9.75h-3
	c0,7.34,2.33,13.67,7,19c4.66,5.34,10.83,8,18.5,8c7.67,0,13.75-2.66,18.25-8c4.5-5.33,6.75-11.67,6.75-19H128z M149.5,129.75
	c-1.34-5.66-4.25-10.41-8.75-14.25c-4.5-3.83-9.75-5.75-15.75-5.75s-11.33,1.92-16,5.75c-4.67,3.84-7.67,8.59-9,14.25H149.5z
	 M117.5,134.25c0,3.34-1.17,5-3.5,5c-2.34,0-3.5-1.66-3.5-5h-3c0,2.67,0.58,4.92,1.75,6.75c1.16,1.84,3.08,2.75,5.75,2.75
	c5.33,0,8-2.83,8-8.5v-1H117.5z M125.5,79.75c8.66,0,15.83,1.59,21.5,4.75c5.66,3.17,9.83,6.42,12.5,9.75
	c3.33,3.67,5.58,7.09,6.75,10.25c1.17,3.17,1.75,4.92,1.75,5.25c0.33,0.67,0.25,1.34-0.25,2c-0.5,0.67-1.09,1-1.75,1l-0.5,0.5
	c-1.67,0-2.5-0.66-2.5-2c0-0.33-0.59-1.83-1.75-4.5c-1.17-2.66-3.09-5.66-5.75-9c-7.34-8.33-17.34-12.5-30-12.5c-1.67,0-2.5-1-2.5-3
	C123,80.59,123.83,79.75,125.5,79.75z"/>
</svg>
