<?xml version="1.0" encoding="utf-8"?>
<!-- Generator: Adobe Illustrator 25.3.1, SVG Export Plug-In . SVG Version: 6.00 Build 0)  -->
<svg version="1.1" id="Capa_1" xmlns="http://www.w3.org/2000/svg" xmlns:xlink="http://www.w3.org/1999/xlink" x="0px" y="0px"
	 viewBox="0 0 250 250" style="enable-background:new 0 0 250 250;" xml:space="preserve">
<style type="text/css">
	.st0{fill:#F70606;}
</style>
<path d="M123.6,106c8.66,0,15.91,2.92,21.75,8.75c5.83,5.84,8.75,13.09,8.75,21.75c0,8.67-2.92,16-8.75,22c-5.83,6-13.09,9-21.75,9
	c-8.67,0-16-3-22-9c-6-6-9-13.33-9-22c0-8.67,3-15.91,9-21.75C107.6,108.92,114.93,106,123.6,106z M136.1,136
	c0,4.67-1.42,8.09-4.25,10.25c-2.84,2.17-5.75,3.25-8.75,3.25c-2.67,0-5.42-1.08-8.25-3.25c-2.84-2.16-4.25-5.58-4.25-10.25H98.1
	c0,7.34,2.5,13.59,7.5,18.75c5,5.17,11,7.75,18,7.75c7,0,12.91-2.58,17.75-7.75c4.83-5.16,7.25-11.41,7.25-18.75H136.1z
	 M148.1,131.5c-1-5.66-3.75-10.5-8.25-14.5c-4.5-4-9.92-6-16.25-6c-6.34,0-11.75,2-16.25,6c-4.5,4-7.42,8.84-8.75,14.5H148.1z
	 M126.6,136c0,3-1.17,4.5-3.5,4.5c-2.34,0-3.5-1.5-3.5-4.5h-4c0,3,0.75,5.25,2.25,6.75c1.5,1.5,3.25,2.25,5.25,2.25
	c5.33,0,8-2.83,8-8.5V136H126.6z M126.1,78.5c2,0,3.16,0.5,3.5,1.5c2.66,8.67,7.42,15.17,14.25,19.5c6.83,4.34,14.58,6.5,23.25,6.5
	c1.67,0,2.5,1,2.5,3c0,1.67-0.83,2.5-2.5,2.5c-8.67,0-15.83-1.58-21.5-4.75c-5.67-3.16-9.84-6.58-12.5-10.25
	c-3.34-3.67-5.59-7-6.75-10c-1.17-3-1.75-4.66-1.75-5C123.93,79.5,124.43,78.5,126.1,78.5z"/>
</svg>
