<?xml version="1.0" encoding="utf-8"?>
<!-- Generator: Adobe Illustrator 25.3.1, SVG Export Plug-In . SVG Version: 6.00 Build 0)  -->
<svg version="1.1" id="Capa_1" xmlns="http://www.w3.org/2000/svg" xmlns:xlink="http://www.w3.org/1999/xlink" x="0px" y="0px"
	 viewBox="0 0 250 250" style="enable-background:new 0 0 250 250;" xml:space="preserve">
<style type="text/css">
	.st0{fill:#F70606;}
</style>
<g>
	<path d="M104.43,136.75c0-8.66,3-15.91,9-21.75c6-5.83,13.33-8.75,22-8.75c8.33,0,15.5,2.92,21.5,8.75c6,5.83,9,13.09,9,21.75
		c0,8.67-3,16-9,22c-6,6-13.17,9-21.5,9c-8.67,0-16-3-22-9C107.43,152.75,104.43,145.42,104.43,136.75z M157.43,136.25
		c0,4-1.17,7.34-3.5,10c-2.34,2.67-5.5,4-9.5,4c-4,0-7.08-1.41-9.25-4.25c-2.17-2.83-3.25-6.08-3.25-9.75h-22
		c0,7.34,2.5,13.5,7.5,18.5s11,7.5,18,7.5c6.66,0,12.5-2.5,17.5-7.5s7.5-11.16,7.5-18.5H157.43z M159.93,131.25
		c-1.34-5.66-4.34-10.33-9-14c-4.67-3.66-9.84-5.5-15.5-5.5c-6,0-11.34,1.84-16,5.5c-4.67,3.67-7.67,8.34-9,14H159.93z
		 M135.93,81.25c8.66,0,15.83,1.59,21.5,4.75c5.66,3.17,9.83,6.42,12.5,9.75c3.33,3.67,5.58,7.09,6.75,10.25
		c1.16,3.17,1.75,4.92,1.75,5.25c0.33,0.67,0.25,1.33-0.25,2c-0.5,0.67-1.09,1-1.75,1l-0.5,0.5c-1.67,0-2.5-0.66-2.5-2
		c0-0.33-0.59-1.83-1.75-4.5c-1.17-2.66-3.09-5.66-5.75-9c-7.34-8.33-17.34-12.5-30-12.5c-1.67,0-2.5-1-2.5-3
		C133.43,82.08,134.26,81.25,135.93,81.25z M149.43,136.25c0,3-1.17,4.5-3.5,4.5c-2.34,0-3.5-1.5-3.5-4.5h-5.5
		c0,2.67,0.58,4.92,1.75,6.75c1.16,1.84,3.08,2.75,5.75,2.75c5.33,0,8-2.83,8-8.5v-1H149.43z"/>
</g>
</svg>
