<?xml version="1.0" encoding="utf-8"?>
<!-- Generator: Adobe Illustrator 25.3.1, SVG Export Plug-In . SVG Version: 6.00 Build 0)  -->
<svg version="1.1" id="Capa_1" xmlns="http://www.w3.org/2000/svg" xmlns:xlink="http://www.w3.org/1999/xlink" x="0px" y="0px"
	 viewBox="0 0 250 250" style="enable-background:new 0 0 250 250;" xml:space="preserve">
<style type="text/css">
	.st0{fill:#F70606;}
</style>
<path d="M51.35,134h-6.6c-2.2,0-4-0.75-5.4-2.25c-1.4-1.5-2.1-3.35-2.1-5.55v-13.5c0-2.2,0.7-4,2.1-5.4c1.4-1.4,3.2-2.1,5.4-2.1h6.6
	c1.6,0,3.1,0.5,4.5,1.5V44c0-2.2,0.75-4.05,2.25-5.55s3.35-2.25,5.55-2.25h122.4c2.2,0,4.1,0.75,5.7,2.25c1.6,1.5,2.4,3.35,2.4,5.55
	v62.4c1.6-0.8,3-1.2,4.2-1.2h6.6c2.2,0,4.05,0.7,5.55,2.1c1.5,1.4,2.25,3.2,2.25,5.4v13.5c0,2.2-0.75,4.05-2.25,5.55
	s-3.35,2.25-5.55,2.25h-6.6c-2.2,0-4-0.75-5.4-2.25c-1.4-1.5-2.1-3.35-2.1-5.55c0-1,0.5-1.5,1.5-1.5c1.2,0,1.8,0.5,1.8,1.5
	c0,1.2,0.4,2.35,1.2,3.45c0.8,1.1,1.8,1.65,3,1.65h6.6c1.2,0,2.25-0.55,3.15-1.65c0.9-1.1,1.35-2.25,1.35-3.45v-13.5
	c0-1.2-0.45-2.3-1.35-3.3c-0.9-1-1.95-1.5-3.15-1.5h-6.6c-2.4,0-4,1.3-4.8,3.9v1.8c0,1.2-0.4,1.8-1.2,1.8c-1,0-1.5-0.6-1.5-1.8V44
	c0-1.2-0.5-2.25-1.5-3.15c-1-0.9-2.1-1.35-3.3-1.35H63.65c-1.2,0-2.25,0.45-3.15,1.35c-0.9,0.9-1.35,1.95-1.35,3.15v69.6
	c0,1.2-0.5,1.8-1.5,1.8c-0.8,0-1.2-0.6-1.2-1.8v-1.8c-0.8-2.6-2.5-3.9-5.1-3.9h-6.6c-1.2,0-2.2,0.5-3,1.5c-0.8,1-1.2,2.1-1.2,3.3
	v13.5c0,1.2,0.4,2.35,1.2,3.45c0.8,1.1,1.8,1.65,3,1.65h6.6c1.2,0,2.25-0.55,3.15-1.65c0.9-1.1,1.35-2.25,1.35-3.45
	c0-1,0.5-1.5,1.5-1.5c1.2,0,1.8,0.5,1.8,1.5c0,2.2-0.75,4.05-2.25,5.55S53.55,134,51.35,134z M185.75,213.8H63.65
	c-2.2,0-4.1-0.75-5.7-2.25c-1.6-1.5-2.4-3.35-2.4-5.55c0-1,0.5-1.5,1.5-1.5c1.2,0,1.8,0.5,1.8,1.5c0,1.2,0.45,2.25,1.35,3.15
	c0.9,0.9,2.05,1.35,3.45,1.35h122.1c1.4,0,2.55-0.45,3.45-1.35c0.9-0.9,1.35-1.95,1.35-3.15c0-1,0.5-1.5,1.5-1.5
	c1.2,0,1.8,0.5,1.8,1.5c0,2.2-0.8,4.05-2.4,5.55C189.85,213.05,187.95,213.8,185.75,213.8z"/>
</svg>
