<?xml version="1.0" encoding="utf-8"?>
<!-- Generator: Adobe Illustrator 25.3.1, SVG Export Plug-In . SVG Version: 6.00 Build 0)  -->
<svg version="1.1" id="Capa_1" xmlns="http://www.w3.org/2000/svg" xmlns:xlink="http://www.w3.org/1999/xlink" x="0px" y="0px"
	 viewBox="0 0 250 250" style="enable-background:new 0 0 250 250;" xml:space="preserve">
<style type="text/css">
	.st0{fill:#F70606;}
</style>
<path d="M51.35,133.1h-6.6c-2.2,0-4-0.75-5.4-2.25c-1.4-1.5-2.1-3.35-2.1-5.55v-13.5c0-2.2,0.7-4,2.1-5.4c1.4-1.4,3.2-2.1,5.4-2.1
	h6.6c1.6,0,3.1,0.5,4.5,1.5V43.1c0-2.2,0.75-4.05,2.25-5.55s3.35-2.25,5.55-2.25h122.4c2.2,0,4.1,0.75,5.7,2.25
	c1.6,1.5,2.4,3.35,2.4,5.55v62.4c1.6-0.8,3-1.2,4.2-1.2h6.6c2.2,0,4.05,0.7,5.55,2.1c1.5,1.4,2.25,3.2,2.25,5.4v13.5
	c0,2.2-0.75,4.05-2.25,5.55s-3.35,2.25-5.55,2.25h-6.6c-2.2,0-4-0.75-5.4-2.25c-1.4-1.5-2.1-3.35-2.1-5.55c0-1,0.5-1.5,1.5-1.5
	c1.2,0,1.8,0.5,1.8,1.5c0,1.2,0.4,2.35,1.2,3.45c0.8,1.1,1.8,1.65,3,1.65h6.6c1.2,0,2.25-0.55,3.15-1.65
	c0.9-1.1,1.35-2.25,1.35-3.45v-13.5c0-1.2-0.45-2.3-1.35-3.3c-0.9-1-1.95-1.5-3.15-1.5h-6.6c-2.4,0-4,1.3-4.8,3.9v1.8
	c0,1.2-0.4,1.8-1.2,1.8c-1,0-1.5-0.6-1.5-1.8V43.1c0-1.2-0.5-2.25-1.5-3.15c-1-0.9-2.1-1.35-3.3-1.35H63.65
	c-1.2,0-2.25,0.45-3.15,1.35c-0.9,0.9-1.35,1.95-1.35,3.15v69.6c0,1.2-0.5,1.8-1.5,1.8c-0.8,0-1.2-0.6-1.2-1.8v-1.8
	c-0.8-2.6-2.5-3.9-5.1-3.9h-6.6c-1.2,0-2.2,0.5-3,1.5c-0.8,1-1.2,2.1-1.2,3.3v13.5c0,1.2,0.4,2.35,1.2,3.45c0.8,1.1,1.8,1.65,3,1.65
	h6.6c1.2,0,2.25-0.55,3.15-1.65c0.9-1.1,1.35-2.25,1.35-3.45c0-1,0.5-1.5,1.5-1.5c1.2,0,1.8,0.5,1.8,1.5c0,2.2-0.75,4.05-2.25,5.55
	S53.55,133.1,51.35,133.1z M147.35,214.7h-45.3c-6.4,0-12.45-1.3-18.15-3.9c-5.7-2.6-10.65-6.15-14.85-10.65s-7.5-9.75-9.9-15.75
	c-2.4-6-3.6-12.4-3.6-19.2c0-1.2,0.5-1.8,1.5-1.8c1.2,0,1.8,0.6,1.8,1.8c0,6.4,1.15,12.4,3.45,18c2.3,5.6,5.4,10.5,9.3,14.7
	c3.9,4.2,8.45,7.5,13.65,9.9c5.2,2.4,10.8,3.6,16.8,3.6h45.3c6,0,11.6-1.2,16.8-3.6c5.2-2.4,9.75-5.7,13.65-9.9
	c3.9-4.2,7-9.1,9.3-14.7c2.3-5.6,3.45-11.6,3.45-18c0-1.2,0.5-1.8,1.5-1.8c1.2,0,1.8,0.6,1.8,1.8c0,6.8-1.25,13.2-3.75,19.2
	c-2.5,6-5.85,11.25-10.05,15.75s-9.1,8.05-14.7,10.65C159.75,213.4,153.75,214.7,147.35,214.7z"/>
</svg>
