<?xml version="1.0" encoding="utf-8"?>
<!-- Generator: Adobe Illustrator 25.3.1, SVG Export Plug-In . SVG Version: 6.00 Build 0)  -->
<svg version="1.1" id="Capa_1" xmlns="http://www.w3.org/2000/svg" xmlns:xlink="http://www.w3.org/1999/xlink" x="0px" y="0px"
	 viewBox="0 0 250 250" style="enable-background:new 0 0 250 250;" xml:space="preserve">
<style type="text/css">
	.st0{fill:#F70606;}
</style>
<path d="M42.5,111.05h9c1.6,0,3.1,0.5,4.5,1.5v-2.4l-0.3-34.2c0-6.8,1.2-13.2,3.6-19.2c2.4-6,5.75-11.25,10.05-15.75
	c4.3-4.5,9.3-8.05,15-10.65c5.7-2.6,11.75-3.9,18.15-3.9h45.3c6.4,0,12.45,1.3,18.15,3.9c5.7,2.6,10.65,6.15,14.85,10.65
	c4.2,4.5,7.55,9.75,10.05,15.75c2.5,6,3.65,12.4,3.45,19.2l-0.6,34.2v2.7c1.2-1.2,2.8-1.8,4.8-1.8h9c2.2,0,4,0.75,5.4,2.25
	c1.4,1.5,2.1,3.35,2.1,5.55v25.2c0,2.2-0.7,4-2.1,5.4c-1.4,1.4-3.2,2.1-5.4,2.1h-9c-2.2,0-4.05-0.7-5.55-2.1
	c-1.5-1.4-2.25-3.2-2.25-5.4c0-1.2,0.6-1.8,1.8-1.8c1,0,1.5,0.6,1.5,1.8c0,1.2,0.45,2.2,1.35,3c0.9,0.8,1.95,1.2,3.15,1.2h9
	c2.8,0,4.2-1.4,4.2-4.2v-25.2c0-1.2-0.4-2.25-1.2-3.15c-0.8-0.9-1.8-1.35-3-1.35h-9c-1.2,0-2.3,0.45-3.3,1.35
	c-1,0.9-1.5,1.95-1.5,3.15v5.7c0,1-0.4,1.5-1.2,1.5c-1.2,0-1.8-0.5-1.8-1.5v-48.6c0-6.4-1.1-12.45-3.3-18.15
	c-2.2-5.7-5.25-10.65-9.15-14.85S169.8,35.4,164.6,32.9c-5.2-2.5-10.8-3.75-16.8-3.75h-45.3c-6,0-11.6,1.25-16.8,3.75
	c-5.2,2.5-9.75,5.85-13.65,10.05s-7,9.15-9.3,14.85c-2.3,5.7-3.45,11.75-3.45,18.15v48.6c0,1-0.5,1.5-1.5,1.5c-1,0-1.5-0.5-1.5-1.5
	v-6.6c-0.6-2.4-2.2-3.6-4.8-3.6h-9c-1.2,0-2.2,0.45-3,1.35c-0.8,0.9-1.2,1.95-1.2,3.15v25.2c0,2.8,1.4,4.2,4.2,4.2h9
	c1.2,0,2.25-0.4,3.15-1.2c0.9-0.8,1.35-1.8,1.35-3c0-1.2,0.5-1.8,1.5-1.8c1,0,1.5,0.6,1.5,1.8c0,2.2-0.7,4-2.1,5.4
	c-1.4,1.4-3.2,2.1-5.4,2.1h-9c-2.2,0-4-0.7-5.4-2.1c-1.4-1.4-2.1-3.2-2.1-5.4v-25.2c0-2.2,0.7-4.05,2.1-5.55
	C38.5,111.8,40.3,111.05,42.5,111.05z M67.1,188.45c0.2-0.2,0.5-0.3,0.9-0.3c0.8,0,1.3,0.3,1.5,0.9c6.2,9.8,14.25,17.5,24.15,23.1
	c9.9,5.6,20.65,8.4,32.25,8.4c11.6,0,22.35-2.8,32.25-8.4c9.9-5.6,17.95-13.3,24.15-23.1c0.4-0.6,0.9-0.9,1.5-0.9
	c0.4,0,0.7,0.1,0.9,0.3c0.8,0.8,0.9,1.6,0.3,2.4c-6.4,10.2-14.85,18.2-25.35,24c-10.5,5.8-21.75,8.7-33.75,8.7s-23.25-2.9-33.75-8.7
	c-10.5-5.8-18.95-13.8-25.35-24C66.2,190.05,66.3,189.25,67.1,188.45z"/>
</svg>
