<?xml version="1.0" encoding="utf-8"?>
<!-- Generator: Adobe Illustrator 25.3.1, SVG Export Plug-In . SVG Version: 6.00 Build 0)  -->
<svg version="1.1" id="Capa_1" xmlns="http://www.w3.org/2000/svg" xmlns:xlink="http://www.w3.org/1999/xlink" x="0px" y="0px"
	 viewBox="0 0 250 250" style="enable-background:new 0 0 250 250;" xml:space="preserve">
<style type="text/css">
	.st0{fill:#F70606;}
</style>
<path d="M42.65,112.55h9c1.6,0,3.2,0.5,4.8,1.5l-0.3-3v-34.5c0-6.8,1.2-13.2,3.6-19.2s5.7-11.25,9.9-15.75s9.15-8.05,14.85-10.65
	c5.7-2.6,11.75-3.9,18.15-3.9h45.3c6.4,0,12.4,1.3,18,3.9c5.6,2.6,10.5,6.15,14.7,10.65s7.55,9.75,10.05,15.75
	c2.5,6,3.75,12.4,3.75,19.2v34.5l-0.3,3c1.4-1,2.9-1.5,4.5-1.5h9c2.2,0,4,0.7,5.4,2.1c1.4,1.4,2.1,3.2,2.1,5.4v25.2
	c0,2.2-0.7,4-2.1,5.4c-1.4,1.4-3.2,2.1-5.4,2.1h-9c-2.2,0-4.05-0.7-5.55-2.1c-1.5-1.4-2.25-3.2-2.25-5.4c0-1.2,0.5-1.8,1.5-1.8
	c1,0,1.5,0.6,1.5,1.8s0.5,2.2,1.5,3c1,0.8,2.1,1.2,3.3,1.2h9c2.8,0,4.2-1.4,4.2-4.2v-25.2c0-2.8-1.4-4.2-4.2-4.2h-9
	c-2.6,0-4.2,1.2-4.8,3.6v0.9c0,1-0.4,1.5-1.2,1.5c-1,0-1.5-0.5-1.5-1.5v-43.8c0-6.4-1.15-12.4-3.45-18c-2.3-5.6-5.4-10.5-9.3-14.7
	c-3.9-4.2-8.45-7.5-13.65-9.9c-5.2-2.4-10.8-3.6-16.8-3.6h-45.3c-6,0-11.6,1.2-16.8,3.6c-5.2,2.4-9.75,5.7-13.65,9.9
	c-3.9,4.2-7,9.1-9.3,14.7c-2.3,5.6-3.45,11.6-3.45,18v43.8c0,1-0.5,1.5-1.5,1.5c-0.8,0-1.2-0.5-1.2-1.5v-0.9
	c-0.4-1-1.1-1.85-2.1-2.55c-1-0.7-2-1.05-3-1.05h-9c-1.2,0-2.25,0.4-3.15,1.2c-0.9,0.8-1.35,1.8-1.35,3v25.2c0,1.2,0.45,2.2,1.35,3
	c0.9,0.8,1.95,1.2,3.15,1.2h9c1.2,0,2.25-0.4,3.15-1.2c0.9-0.8,1.35-1.8,1.35-3s0.5-1.8,1.5-1.8c1,0,1.5,0.6,1.5,1.8
	c0,2.2-0.7,4-2.1,5.4c-1.4,1.4-3.2,2.1-5.4,2.1h-9c-2.2,0-4.05-0.7-5.55-2.1c-1.5-1.4-2.25-3.2-2.25-5.4v-25.2
	c0-2.2,0.75-4,2.25-5.4C38.6,113.25,40.45,112.55,42.65,112.55z M56.15,173.45c0-1.2,0.5-1.8,1.5-1.8c1.2,0,1.8,0.6,1.8,1.8
	c0,6.4,1.15,12.4,3.45,18c2.3,5.6,5.4,10.5,9.3,14.7c3.9,4.2,8.45,7.5,13.65,9.9c5.2,2.4,10.8,3.6,16.8,3.6h45.3
	c6,0,11.6-1.2,16.8-3.6c5.2-2.4,9.75-5.7,13.65-9.9c3.9-4.2,7-9.1,9.3-14.7c2.3-5.6,3.45-11.6,3.45-18c0-1.2,0.5-1.8,1.5-1.8
	c1.2,0,1.8,0.6,1.8,1.8c0,6.8-1.25,13.2-3.75,19.2c-2.5,6-5.85,11.25-10.05,15.75s-9.1,8.05-14.7,10.65c-5.6,2.6-11.6,3.9-18,3.9
	h-45.3c-6.4,0-12.45-1.3-18.15-3.9c-5.7-2.6-10.65-6.15-14.85-10.65s-7.5-9.75-9.9-15.75S56.15,180.25,56.15,173.45z"/>
</svg>
