<?xml version="1.0" encoding="utf-8"?>
<!-- Generator: Adobe Illustrator 25.3.1, SVG Export Plug-In . SVG Version: 6.00 Build 0)  -->
<svg version="1.1" id="Capa_1" xmlns="http://www.w3.org/2000/svg" xmlns:xlink="http://www.w3.org/1999/xlink" x="0px" y="0px"
	 viewBox="0 0 250 250" style="enable-background:new 0 0 250 250;" xml:space="preserve">
<style type="text/css">
	.st0{fill:#F70606;}
</style>
<path d="M192.35,111.65c-1,0-1.5-0.6-1.5-1.8v-69.6c0-1.2-0.5-2.25-1.5-3.15c-1-0.9-2.1-1.35-3.3-1.35H63.65
	c-1.2,0-2.25,0.45-3.15,1.35c-0.9,0.9-1.35,1.95-1.35,3.15v69.6c0,1.2-0.5,1.8-1.5,1.8c-0.8,0-1.2-0.6-1.2-1.8v-1.8
	c-0.8-2.6-2.5-3.9-5.1-3.9h-6.6c-1.2,0-2.2,0.5-3,1.5c-0.8,1-1.2,2.1-1.2,3.3v13.5c0,1.2,0.4,2.35,1.2,3.45c0.8,1.1,1.8,1.65,3,1.65
	h6.6c1.2,0,2.25-0.55,3.15-1.65c0.9-1.1,1.35-2.25,1.35-3.45c0-1,0.5-1.5,1.5-1.5c1.2,0,1.8,0.5,1.8,1.5c0,2.2-0.75,4.05-2.25,5.55
	s-3.35,2.25-5.55,2.25h-6.6c-2.2,0-4-0.75-5.4-2.25c-1.4-1.5-2.1-3.35-2.1-5.55v-13.5c0-2.2,0.7-4,2.1-5.4c1.4-1.4,3.2-2.1,5.4-2.1
	h6.6c1.6,0,3.1,0.5,4.5,1.5v-62.7c0-2.2,0.75-4.05,2.25-5.55s3.35-2.25,5.55-2.25h122.4c2.2,0,4.1,0.75,5.7,2.25
	c1.6,1.5,2.4,3.35,2.4,5.55v62.4c1.6-0.8,3-1.2,4.2-1.2h6.6c2.2,0,4.05,0.7,5.55,2.1c1.5,1.4,2.25,3.2,2.25,5.4v13.5
	c0,2.2-0.75,4.05-2.25,5.55s-3.35,2.25-5.55,2.25h-6.6c-2.2,0-4-0.75-5.4-2.25c-1.4-1.5-2.1-3.35-2.1-5.55c0-1,0.5-1.5,1.5-1.5
	c1.2,0,1.8,0.5,1.8,1.5c0,1.2,0.4,2.35,1.2,3.45c0.8,1.1,1.8,1.65,3,1.65h6.6c1.2,0,2.25-0.55,3.15-1.65
	c0.9-1.1,1.35-2.25,1.35-3.45v-13.5c0-1.2-0.45-2.3-1.35-3.3c-0.9-1-1.95-1.5-3.15-1.5h-6.6c-2.4,0-4,1.3-4.8,3.9v1.8
	C193.55,111.05,193.15,111.65,192.35,111.65z M124.55,217.55c-1.6,0-3.25-0.15-4.95-0.45c-1.7-0.3-3.35-0.95-4.95-1.95l-54-27.9
	c-3.4-1.8-5.1-4.6-5.1-8.4v-17.1c0-1.2,0.5-1.8,1.5-1.8c1.2,0,1.8,0.6,1.8,1.8v17.1c0,2.6,1.1,4.5,3.3,5.7l54,28.2
	c3.2,1.4,6.1,2.1,8.7,2.1c2.4,0,5.2-0.7,8.4-2.1l54-28.2c2.2-1.2,3.3-3.1,3.3-5.7v-18c0-1.2,0.5-1.8,1.5-1.8c1.2,0,1.8,0.6,1.8,1.8
	v18c0,3.8-1.7,6.6-5.1,8.4l-54,27.9c-1.6,1-3.25,1.65-4.95,1.95C128.1,217.4,126.35,217.55,124.55,217.55z"/>
</svg>
