<?xml version="1.0" encoding="utf-8"?>
<!-- Generator: Adobe Illustrator 25.3.1, SVG Export Plug-In . SVG Version: 6.00 Build 0)  -->
<svg version="1.1" id="Capa_1" xmlns="http://www.w3.org/2000/svg" xmlns:xlink="http://www.w3.org/1999/xlink" x="0px" y="0px"
	 viewBox="0 0 250 250" style="enable-background:new 0 0 250 250;" xml:space="preserve">
<style type="text/css">
	.st0{fill:#F70606;}
</style>
<path d="M192.65,107.15c-1,0-1.5-0.6-1.5-1.8v-69.6c0-1.2-0.5-2.25-1.5-3.15c-1-0.9-2.1-1.35-3.3-1.35H63.95
	c-1.2,0-2.25,0.45-3.15,1.35c-0.9,0.9-1.35,1.95-1.35,3.15v69.6c0,1.2-0.5,1.8-1.5,1.8c-0.8,0-1.2-0.6-1.2-1.8l-0.3-2.4
	c-0.6-2.2-2.2-3.3-4.8-3.3h-9c-1.2,0-2.25,0.4-3.15,1.2c-0.9,0.8-1.35,1.8-1.35,3v25.2c0,1.2,0.45,2.2,1.35,3
	c0.9,0.8,1.95,1.2,3.15,1.2h9c1.2,0,2.25-0.4,3.15-1.2c0.9-0.8,1.35-1.8,1.35-3c0-1.2,0.5-1.8,1.5-1.8c1,0,1.5,0.6,1.5,1.8
	c0,2.2-0.7,4-2.1,5.4c-1.4,1.4-3.2,2.1-5.4,2.1h-9c-2.2,0-4.05-0.7-5.55-2.1c-1.5-1.4-2.25-3.2-2.25-5.4v-25.2
	c0-2.2,0.75-4,2.25-5.4c1.5-1.4,3.35-2.1,5.55-2.1h9c1.6,0,3.1,0.5,4.5,1.5v-62.1c0-2.2,0.75-4.05,2.25-5.55s3.35-2.25,5.55-2.25
	h122.4c2.2,0,4.1,0.75,5.7,2.25c1.6,1.5,2.4,3.35,2.4,5.55v61.8c1.6-0.8,3-1.2,4.2-1.2h9c2.2,0,4,0.7,5.4,2.1
	c1.4,1.4,2.1,3.2,2.1,5.4v25.2c0,2.2-0.7,4-2.1,5.4c-1.4,1.4-3.2,2.1-5.4,2.1h-9c-2.2,0-4.05-0.7-5.55-2.1
	c-1.5-1.4-2.25-3.2-2.25-5.4c0-1.2,0.5-1.8,1.5-1.8c1,0,1.5,0.6,1.5,1.8c0,1.2,0.5,2.2,1.5,3c1,0.8,2.1,1.2,3.3,1.2h9
	c2.8,0,4.2-1.4,4.2-4.2v-25.2c0-2.8-1.4-4.2-4.2-4.2h-9c-2.4,0-3.9,1-4.5,3l-0.3,2.7C193.85,106.55,193.45,107.15,192.65,107.15z
	 M125.15,222.05c-5.2,0-9.65-1.3-13.35-3.9c-3.7-2.6-5.75-5.9-6.15-9.9c-17-5-30.3-15-39.9-30c-0.6-0.8-0.5-1.6,0.3-2.4
	c0.2,0,0.35-0.05,0.45-0.15c0.1-0.1,0.25-0.15,0.45-0.15c0.8,0,1.3,0.3,1.5,0.9c4.4,7,10.05,13,16.95,18c6.9,5,14.35,8.6,22.35,10.8
	c0.8,0.4,1.2,1,1.2,1.8c0,3.4,1.7,6.2,5.1,8.4c3.4,2.2,7.4,3.3,12,3.3c4.6,0,8.35-1.1,11.25-3.3c2.9-2.2,4.35-5,4.35-8.4
	c0-0.6,0.4-1.2,1.2-1.8c7.6-2.2,14.75-5.8,21.45-10.8c6.7-5,12.15-10.9,16.35-17.7c0.4-0.6,0.9-0.9,1.5-0.9
	c0.2,0,0.35,0.05,0.45,0.15c0.1,0.1,0.25,0.15,0.45,0.15c0.8,0.6,1,1.4,0.6,2.4c-4.4,7-10,13.1-16.8,18.3c-6.8,5.2-14.1,9-21.9,11.4
	c-0.4,4-2.5,7.3-6.3,9.9C134.85,220.75,130.35,222.05,125.15,222.05z"/>
</svg>
